<svg width="1600" height="1600" viewBox="0 0 1200 1200" xmlns="http://www.w3.org/2000/svg" focusable="false"><path d="M674.6 679.62c19.023 3.4375 35.496 15.234 44.871 32.141s10.66 37.129 3.5039 55.086h132.5c6.9023 0 12.5 5.5938 12.5 12.5 0 6.9023-5.5977 12.5-12.5 12.5h-155.35c-5.043.007813-9.5977-3.0156-11.551-7.6641-1.9492-4.6523-.91406-10.02 2.625-13.613 7.3086-7.4023 11.387-17.402 11.336-27.809-.046875-10.402-4.2148-20.363-11.594-27.699-7.3789-7.3359-17.363-11.453-27.766-11.441-6.7969 0-12.352-5.4297-12.5-12.227-.17969-17.863-9.875-34.273-25.434-43.051-15.559-8.7773-34.621-8.5859-50 .5-15.383 9.0859-24.746 25.688-24.566 43.551.046875 4.0234.60156 8.0195 1.6484 11.902 1.0664 4.0547.03125 8.3711-2.7617 11.5-2.7891 3.1289-6.9648 4.6484-11.113 4.0508-1.3516-.24219-2.7227-.37891-4.0977-.40234-6.9844-.085938-13.645 2.9414-18.172 8.2578-4.5273 5.3203-6.4492 12.379-5.25 19.258 1.2031 6.8789 5.4062 12.867 11.469 16.336 2.8945 1.6445 5.0156 4.3789 5.8867 7.5898.87109 3.2148.42578 6.6406-1.2383 9.5273-1.6641 2.8828-4.4102 4.9805-7.6289 5.832s-6.6445.38281-9.5195-1.3008c-11.59-6.6562-19.914-17.809-23.004-30.812-3.0898-13.004-.67188-26.707 6.6875-37.867 7.3555-11.16 18.996-18.785 32.168-21.07v-2.8008c.046875-19.859 7.9688-38.891 22.027-52.918 14.062-14.027 33.113-21.906 52.973-21.906 17.68-.12891 34.824 6.0469 48.359 17.418 13.535 11.375 22.57 27.195 25.492 44.633zm135-309.2c5.457 4.1367 13.227 3.1094 17.422-2.3008 4.1992-5.4102 3.2617-13.191-2.0977-17.449-8.3945-6.4531-13.684-16.141-14.574-26.691-.88672-10.551 2.707-20.988 9.9023-28.754 7.1992-7.7656 17.332-12.141 27.922-12.055 5.5273-.058593 10.988 1.2109 15.926 3.6992 6.1094 3.168 13.629.79688 16.824-5.3008 9.1602-17.508 25.73-29.953 45.102-33.871s39.473 1.1094 54.723 13.684c15.246 12.574 24.008 31.352 23.852 51.113.003907 4.4414-.44141 8.8711-1.3281 13.227-.75 3.6719.19141 7.4883 2.5586 10.395 2.3711 2.9062 5.918 4.5977 9.668 4.6055h84.5c6.9023 0 12.5-5.5977 12.5-12.5 0-6.9062-5.5977-12.5-12.5-12.5h-70.449v-3.25c.035157-25.891-11.012-50.559-30.348-67.773-19.332-17.215-45.113-25.336-70.824-22.305-25.711 3.0273-48.898 16.914-63.703 38.152-18.809-5.1875-38.961-1.3164-54.512 10.465-15.551 11.785-24.727 30.137-24.824 49.645-.09375 19.512 8.9023 37.953 24.336 49.891zm126.38 2.5c-6.9062 0-12.5 5.5938-12.5 12.5 0 6.9023 5.5938 12.5 12.5 12.5h112.82c6.9023 0 12.5-5.5977 12.5-12.5 0-6.9062-5.5977-12.5-12.5-12.5zM764.46 571.04h-.003906c0-29.836 11.852-58.453 32.953-79.551 21.098-21.098 49.711-32.949 79.547-32.949s58.453 11.852 79.551 32.949 32.949 49.715 32.949 79.551-11.852 58.449-32.949 79.547c-21.098 21.102-49.715 32.953-79.551 32.953-29.812-.058593-58.387-11.938-79.457-33.031-21.07-21.094-32.914-49.68-32.941-79.496zm25 0h-.003906c0 23.207 9.2188 45.461 25.629 61.871s38.664 25.629 61.871 25.629 45.465-9.2188 61.871-25.629c16.41-16.41 25.629-38.664 25.629-61.871s-9.2188-45.465-25.629-61.871c-16.406-16.41-38.664-25.629-61.871-25.629-23.184.027344-45.41 9.2539-61.797 25.652-16.387 16.402-25.598 38.637-25.602 61.82zm-588.28 93.648c0 6.9062 5.5938 12.5 12.5 12.5 6.9023 0 12.5-5.5938 12.5-12.5V640.79c0-6.9062-5.5977-12.5-12.5-12.5-6.9062 0-12.5 5.5938-12.5 12.5zm12.5-71.102v.003906c3.3125 0 6.4922-1.3203 8.8398-3.6641 2.3438-2.3438 3.6602-5.5234 3.6602-8.8359v-23.902c0-6.9023-5.5977-12.5-12.5-12.5-6.9062 0-12.5 5.5977-12.5 12.5v23.902c0 3.3125 1.3164 6.4922 3.6602 8.8359s5.5234 3.6641 8.8398 3.6641zm-29.602 29.703c6.9062 0 12.5-5.5977 12.5-12.5 0-6.9062-5.5938-12.5-12.5-12.5h-7.75c-6.9023 0-12.5 5.5938-12.5 12.5 0 6.9023 5.5977 12.5 12.5 12.5zm67.25 0c6.9062 0 12.5-5.5977 12.5-12.5 0-6.9062-5.5938-12.5-12.5-12.5h-7.7734c-6.9062 0-12.5 5.5938-12.5 12.5 0 6.9023 5.5938 12.5 12.5 12.5zm146.75 321.7c14.477 14.324 28.949 30 43.352 46.523 5.3906-1.8672 10.586-4.2734 15.5-7.1719l23.75-14.551c3.9961-2.4414 9.0273-2.4414 13.023 0l24 14.574c13.957 8.3359 29.906 12.742 46.164 12.742 16.254 0 32.207-4.4062 46.16-12.742l23.926-14.523c3.9883-2.3789 8.9609-2.3789 12.949 0l23.75 14.324c15.355 9.3203 33.164 13.801 51.102 12.848 6.9023-.36328 12.797 4.9336 13.164 11.84.36328 6.9023-4.9336 12.797-11.84 13.16-22.926 1.1328-45.668-4.5938-65.324-16.449l-17.273-10.375-17.5 10.625c-17.848 10.715-38.273 16.375-59.09 16.375-20.816 0-41.238-5.6602-59.086-16.375l-17.5-10.648-17.227 10.574c-3.6953 2.1914-7.5195 4.1602-11.449 5.8984 9.8516 12.102 19.676 24.625 29.352 37.926 4.0586 5.5859 2.8203 13.402-2.7656 17.465-5.582 4.0586-13.402 2.8203-17.461-2.7656-165.25-226.97-368.3-272.27-370.25-272.7-3.2461-.68359-6.0898-2.6289-7.8984-5.4102-1.8086-2.7812-2.4414-6.168-1.75-9.4141 1.4844-6.7188 8.0781-11.012 14.824-9.6484 30.773 7.7383 60.684 18.578 89.273 32.348 8.9766-10 17.625-19.801 25.801-29.676 2.9766-3.625 5.8008-7.2266 8.6758-10.824 7.3008-9.1484 14.285-18.266 20.949-27.352 2.5-3.3984 5-6.8008 7.5-10.176 8.4492-11.926 16.5-23.801 23.926-35.551 1.0742-1.6758 1.9766-3.3242 3.0234-5 6.3828-10.25 12.375-20.391 17.977-30.426 2.0508-3.6484 4.0234-7.3008 6-10.926 4.6172-8.582 9-17.059 13.148-25.426 1.5-3.0508 3.1016-6.125 4.5508-9.1484 5.1992-10.898 10.023-21.602 14.477-32.102 1-2.5 1.875-4.7266 2.8516-7.1016 3.3984-8.3008 6.6016-16.477 9.5234-24.426 1.2266-3.3008 2.5-6.5742 3.5508-9.8242 2.6484-7.5508 5.1484-14.926 7.5-22.125.75-2.3008 1.5508-4.6992 2.25-6.9492 2.7852-9.1328 5.2852-17.926 7.5-26.375.60156-2.2734 1.1016-4.4258 1.6484-6.6484 1.6016-6.3242 3.0742-12.5 4.375-18.352.55078-2.5 1.1016-5 1.6016-7.3242 1.2734-6.1016 2.5-11.949 3.3984-17.5.22656-1.1758.47656-2.5.67578-3.6484 1.0234-5.8008 1.8008-11.023 2.5-16.051l-109.85 146.98c-2.6914 3.6172-7.1211 5.5078-11.594 4.9414-4.4766-.5625-8.2969-3.4922-10.008-7.668-1.5-3.6992-36.676-90.949-16.352-150.35l.003906.003906c3.9883-11.742 9.4844-22.922 16.348-33.25h-.17578.003906c-32.699 16.086-63.594 35.594-92.176 58.199-3.9023 3.1641-9.3164 3.6875-13.75 1.3242-4.4336-2.3594-7.0234-7.1445-6.5742-12.148.47656-5.2266 12.699-128.35 121.27-169.7 22.078-9.0078 45.898-12.93 69.699-11.477-31.32-23.797-65.695-43.277-102.2-57.926-4.0781-1.6328-7.0039-5.2852-7.6992-9.625-.69531-4.3359.9375-8.7227 4.3008-11.551 32.102-26.898 90-31.398 140.6-10.898h-.003906c28.09 10.125 51.57 30.055 66.125 56.125 12.926-22.895 32.293-41.48 55.699-53.449 34.738-14.887 74.152-14.359 108.48 1.4492 3.8828 1.5 6.7617 4.832 7.6836 8.8867.92188 4.0586-.23438 8.3086-3.082 11.34l-59.602 63.125c13.141-1.1953 26.391-.35156 39.273 2.5 72.25 16.199 95.875 50.699 109.45 82.301l.003906-.003906c1.6836 3.918 1.2617 8.4219-1.125 11.953-2.3438 3.5703-6.3828 5.6562-10.652 5.5-.60156 0-34.074-.82422-68.25 0-10.977.30078-21.949.75-32 1.4492 7.0938 6.3555 13.559 13.379 19.301 20.973 28.867 43.762 33.309 99.258 11.773 147.05-1.9648 3.0469-5.1562 5.0938-8.75 5.6016-3.5977.58984-7.2734-.47656-10-2.9023l-131.48-113.55.003906.003906c-5.0195 43.406-13.293 86.379-24.75 128.55v.30078c-29.09 119-79.074 231.9-147.62 333.43 17.5 11.852 35.648 25.426 54.148 40.5l22.676 13.625c13.938 8.3906 29.895 12.824 46.164 12.824 16.266 0 32.227-4.4336 46.16-12.824l23.949-14.375c3.9727-2.3477 8.9062-2.3477 12.875 0l23.977 14.398c13.93 8.3867 29.879 12.82 46.137 12.82s32.211-4.4336 46.137-12.82l23.949-14.398h.003906c3.9766-2.3516 8.9219-2.3516 12.898 0l23.875 14.352c13.938 8.3828 29.898 12.812 46.164 12.812 16.266 0 32.223-4.4297 46.16-12.812l23.977-14.375c3.9492-2.3633 8.875-2.3633 12.824 0l24 14.398c13.938 8.3867 29.898 12.816 46.164 12.816 16.266 0 32.223-4.4297 46.16-12.816l24-14.398c3.957-2.3711 8.8945-2.3711 12.852 0l24.199 14.5c13.914 8.3594 29.84 12.777 46.074 12.777s32.16-4.418 46.074-12.777l24.227-14.5c5.9219-3.5508 13.602-1.625 17.148 4.2969 3.5508 5.9258 1.625 13.602-4.2969 17.152l-24.227 14.5c-17.797 10.684-38.168 16.324-58.926 16.324-20.758 0-41.125-5.6406-58.926-16.324l-17.773-10.648-17.5 10.551v-.003906c-17.812 10.707-38.203 16.359-58.988 16.359-20.781 0-41.172-5.6523-58.988-16.359l-17.5-10.551-17.5 10.5c-17.812 10.742-38.223 16.418-59.023 16.418s-41.211-5.6758-59.023-16.418l-17.5-10.477-17.5 10.523v.003907c-17.824 10.723-38.227 16.387-59.027 16.387-20.797 0-41.203-5.6641-59.023-16.387l-17.5-10.523-17.5 10.5c-21.598 12.922-46.852 18.352-71.852 15.449zm-131.3-104.85c13.391-18.082 25.766-36.895 37.078-56.348-16.227-6.5508-31.742-14.746-46.301-24.449-13.016 17.066-27.184 34.199-42.5 51.398 16.223 8.375 33.473 18.023 51.723 29.477zm123.68-339.43c7.5.97656 15.449 1.625 23.852 1.8984 5.1484-20.625 9.4258-40 12.801-58.102-2.6484 0-5.4492.27344-8 .27344-5.25 0-10.199-.125-14.824-.27344-3.3281 16.805-7.8516 35.629-13.828 56.281zm-32.5 89.375v.003906c9.5391 2.6094 19.27 4.4492 29.102 5.5 7.7734-23.227 14.676-46.023 20.676-67.977-8.3711-.41406-16.715-1.2461-25-2.5-6.625 20.523-14.777 42.227-24.727 65.051zm-37.148 74.199v.003906c11.5 5.1992 23.363 9.5508 35.5 13.023 8.0508-19.176 15.625-38.449 22.5-57.676-10.578-1.3633-21.027-3.5703-31.25-6.5977-7.8828 16.734-16.785 33.84-26.699 51.324zm-48.051 75.199v.003906c13.641 8.9961 28.188 16.535 43.398 22.5 10.75-19.875 20.773-40.523 30.176-61.523-13.129-3.8984-25.953-8.7539-38.375-14.527-10.676 17.699-22.125 35.527-35.148 53.625zm28.875-262.98-15.602-70v.003907c-.74219-3.2461-.16406-6.6562 1.6172-9.4727 1.7773-2.8125 4.6094-4.8047 7.8594-5.5273 3.25-.78516 6.6797-.22266 9.5078 1.5625 2.8242 1.7852 4.8086 4.6406 5.4922 7.9141l10.926 48.875 17-22.801-10.523-50h-.003906c-1.4141-6.7578 2.918-13.383 9.6758-14.801 6.7578-1.4141 13.387 2.918 14.801 9.6758l5.9766 28.5 33.301-44.625c0-.17578.35156-.19922.47656-.35156l-.003906.003906c1.4336-1.7852 3.3398-3.1289 5.5-3.875.35156 0 .67578 0 1.0508-.22656.96484-.31641 1.9609-.51562 2.9727-.60156 1.0742.074218 2.1367.29297 3.1523.65234h.80078c.27344 0 .17578.17578.30078.19922h-.003906c2.1172.80469 3.9766 2.1719 5.375 3.9492.30078.375.5.75.77344 1.1484l.003906.003906c1.3125 1.9336 2.043 4.207 2.0977 6.5469-.51953 18.844-2.332 37.633-5.4219 56.227 6.8008.17578 14.523.19922 22.676 0h-.003906c2.9844-17.867 4.7617-35.918 5.3281-54.023.050782-4.8672 2.9219-9.2656 7.3594-11.266s9.6328-1.2461 13.312 1.9375l28.398 24.523v-24.625l.003906.003906c0-6.9062 5.5938-12.5 12.5-12.5 6.9023 0 12.5 5.5938 12.5 12.5v46.199l18.926 16.352v-44c0-6.9062 5.5938-12.5 12.5-12.5 6.9023 0 12.5 5.5938 12.5 12.5v65.574l40.098 34.824c9.125-35.551 3.2695-73.285-16.199-104.4-14.055-17.777-32.551-31.531-53.621-39.871-21.07-8.3398-43.965-10.973-66.379-7.6289-6.8008 1.2188-13.305-3.3008-14.523-10.102-1.2227-6.8008 3.2969-13.305 10.098-14.523 31.996-4.4688 64.598.62891 93.699 14.648 8.8789-1.5547 17.832-2.6406 26.828-3.25l-21.602-15.324c-5.6328-4.0039-6.9531-11.816-2.9492-17.449 4.0039-5.6367 11.816-6.957 17.449-2.9531l47.625 33.852c16.477-.375 32.301-.375 44.227-.30078-19.203-27.789-49.41-46-82.953-50-21.969-4.3125-44.707-2.3281-65.598 5.7266-.70703.32422-1.4453.57422-2.1992.75-13.062 4.9023-25.57 11.164-37.328 18.676-5.8242 3.7109-13.559 2-17.273-3.8281-3.7148-5.8242-2-13.559 3.8242-17.273 12.898-8.25 26.602-15.168 40.902-20.648l12.801-13.602-16.949-5.2266h-.003906c-3.168-.99219-5.8125-3.207-7.3516-6.1484-1.5352-2.9453-1.8438-6.3789-.84766-9.5508 2.0703-6.5977 9.1016-10.27 15.699-8.1992l28.648 8.8242 11.023-11.75-3.3516-1.1016.003907.003906c-6.5586-2.1641-10.121-9.2305-7.9609-15.789s9.2305-10.125 15.789-7.9609l14.426 4.75 9.8516-10.5h-.003906c-23.227-7.3477-48.328-5.9883-70.625 3.8242-30.297 17.867-52.484 46.785-61.898 80.676-2.1133 6.5781-9.1602 10.199-15.738 8.0859s-10.199-9.1602-8.0898-15.738c.92578-2.8984 2.1758-6.4492 3.6758-10.324-3.3828-15.105-10.699-29.051-21.203-40.418-10.508-11.371-23.828-19.766-38.621-24.332-30.336-12.863-64.289-14.383-95.648-4.2734 21.316 9.875 41.902 21.262 61.598 34.074l23.426-8.9258c6.4844-2.3867 13.676.92969 16.062 7.4141 2.3867 6.4805-.92969 13.672-7.4141 16.062l-8.3516 3.0742h.003906c11.371 8.9961 21.176 19.809 29.023 32 13.07 6.8281 24.734 16.066 34.375 27.223 4.4883 5.2539 3.8672 13.152-1.3867 17.641-5.2539 4.4844-13.148 3.8633-17.637-1.3906-16.176-19-53.301-47.023-120.77-21.352l-.003906.003906c-24.535 10.582-46.254 26.754-63.426 47.223-17.172 20.473-29.32 44.676-35.473 70.676 21.148-14.941 43.473-28.152 66.75-39.5l32.227-50.852v.003906c3.707-5.8281 11.434-7.5469 17.262-3.8398 5.8242 3.707 7.543 11.438 3.8359 17.262l-14.426 22.727c5.2305-1.3789 10.539-2.4219 15.902-3.125 7.7461-4.5156 15.922-8.2578 24.398-11.176l10-27.824c.99219-3.2734 3.2812-5.9961 6.332-7.5352 3.0547-1.543 6.6016-1.7656 9.8242-.61719 3.2227 1.1484 5.832 3.5625 7.2227 6.6836 1.3945 3.125 1.4453 6.6797.14844 9.8438l-4.3516 12.227c18.703-2.8984 37.734-2.9492 56.449-.15234 3.2656.60938 6.1523 2.4883 8.0273 5.2266 1.8789 2.7383 2.5859 6.1133 1.9727 9.375-1.3477 6.7422-7.8242 11.176-14.598 10-4.3242-.80078-106.5-18.773-138.18 73.773-7.6797 37.102-4.7852 75.613 8.3477 111.15zm791.95 493.3-24.273 14.574c-13.906 8.375-29.832 12.797-46.062 12.797-16.234 0-32.156-4.4219-46.062-12.797l-24.273-14.551-.003906.003906c-3.9609-2.3828-8.9102-2.3828-12.875 0l-24 14.551V984.376c-13.883 8.3906-29.801 12.824-46.023 12.824s-32.141-4.4336-46.023-12.824l-23.977-14.547c-5.9023-3.5859-13.594-1.7031-17.176 4.1992-3.582 5.9023-1.7031 13.59 4.1992 17.176l24.023 14.574h.003906c17.781 10.762 38.168 16.449 58.949 16.449s41.168-5.6875 58.949-16.449l17.5-10.676 17.824 10.699c17.785 10.711 38.152 16.371 58.914 16.371s41.129-5.6602 58.914-16.371l24.273-14.574c2.9727-1.6367 5.1523-4.4141 6.0391-7.6914.88281-3.2773.39844-6.7773-1.3516-9.6875-1.7461-2.9102-4.6016-4.9883-7.9062-5.75-3.3086-.76172-6.7852-.14844-9.6328 1.7031z"/></svg>