<svg width="1600" height="1600" viewBox="0 0 1200 1200" xmlns="http://www.w3.org/2000/svg" focusable="false"><g><path d="M69.508 610.05c6.5234-6.2461 15.207-9.7344 24.242-9.7344s17.719 3.4883 24.242 9.7344c13.473 13.445 31.727 20.996 50.758 20.996s37.285-7.5508 50.758-20.996c6.5234-6.2461 15.207-9.7344 24.242-9.7344s17.719 3.4883 24.242 9.7344c13.473 13.445 31.727 20.996 50.758 20.996s37.285-7.5508 50.758-20.996c6.5234-6.2461 15.207-9.7344 24.242-9.7344s17.719 3.4883 24.242 9.7344c13.473 13.445 31.727 20.996 50.758 20.996s37.285-7.5508 50.758-20.996c6.5234-6.2461 15.207-9.7344 24.242-9.7344s17.719 3.4883 24.242 9.7344c13.477 13.434 31.73 20.98 50.758 20.98s37.281-7.5469 50.758-20.98c6.5234-6.2461 15.207-9.7344 24.242-9.7344s17.719 3.4883 24.242 9.7344l26.512-26.512h.003906c-13.672-13.062-31.852-20.348-50.758-20.348s-37.086 7.2852-50.758 20.348c-6.4375 6.4141-15.152 10.016-24.242 10.016s-17.805-3.6016-24.242-10.016c-13.672-13.062-31.852-20.348-50.758-20.348s-37.086 7.2852-50.758 20.348c-6.4375 6.4141-15.152 10.016-24.242 10.016s-17.805-3.6016-24.242-10.016c-13.672-13.062-31.852-20.348-50.758-20.348s-37.086 7.2852-50.758 20.348c-6.4375 6.4141-15.152 10.016-24.242 10.016s-17.805-3.6016-24.242-10.016c-13.672-13.062-31.852-20.348-50.758-20.348s-37.086 7.2852-50.758 20.348c-6.4375 6.4141-15.152 10.016-24.242 10.016s-17.805-3.6016-24.242-10.016c-13.672-13.062-31.852-20.348-50.758-20.348s-37.086 7.2852-50.758 20.348zM1074.2 583.54c-6.4375 6.4141-15.152 10.016-24.242 10.016s-17.805-3.6016-24.242-10.016c-13.672-13.062-31.852-20.348-50.758-20.348s-37.086 7.2852-50.758 20.348c-6.4375 6.4141-15.152 10.016-24.242 10.016s-17.805-3.6016-24.242-10.016l-26.512 26.512h-.003906c13.473 13.445 31.727 20.996 50.758 20.996s37.285-7.5508 50.758-20.996c6.5234-6.2461 15.207-9.7344 24.242-9.7344s17.719 3.4883 24.242 9.7344c13.477 13.434 31.73 20.98 50.758 20.98s37.281-7.5469 50.758-20.98c6.5234-6.2461 15.207-9.7344 24.242-9.7344s17.719 3.4883 24.242 9.7344l26.512-26.512h.003906c-13.672-13.062-31.852-20.348-50.758-20.348s-37.086 7.2852-50.758 20.348z"/><path d="M911.25 296.1c22.215-33.539 52.426-61.02 87.906-79.98 35.48-18.957 75.117-28.793 115.34-28.621h10.5v-37.5h-10.5c-38.816-.14062-77.242 7.7852-112.83 23.277-35.594 15.496-67.578 38.215-93.926 66.723 3.6562-40.688-2.5703-81.652-18.148-119.42-15.578-37.762-40.047-71.207-71.324-97.48l-24.039 28.797c30.891 25.922 53.898 59.977 66.418 98.309 12.516 38.328 14.043 79.402 4.4023 118.55l-.41406 1.668c-17.203-41.305-46.277-76.578-83.539-101.36-37.262-24.777-81.039-37.941-125.79-37.824h-17.812v37.5h17.812c38.555-.10156 76.219 11.613 107.92 33.562 31.699 21.953 55.91 53.086 69.383 89.211-38.91-22.227-84.039-31.066-128.46-25.152-44.418 5.9102-85.668 26.242-117.41 57.871l26.516 26.516c27.352-27.289 63.309-44.254 101.76-48.016 38.449-3.7578 77.016 5.918 109.14 27.391-38.543-2.9023-76.547 10.41-104.86 36.723-28.312 26.312-44.367 63.242-44.293 101.89h37.5c-.0625-29.84 13.039-58.191 35.812-77.477 22.77-19.289 52.891-27.547 82.312-22.574-37.957 97.648-58.82 201.11-61.668 305.83l37.5.9375c2.875-105.38 24.762-209.38 64.613-306.98 1.3672-.28125 2.7188-.50781 4.0703-.75l1.2188 1.0859c.58203-.5625 1.1992-1.0703 1.7812-1.6328l-.003906.003907c38.512-6.2109 77.996.52734 112.27 19.164 34.27 18.633 61.391 48.109 77.109 83.812l2.7734 6.207 34.238-15.262-2.7383-6.1875.003906-.003906c-15.152-34.316-39.07-64.043-69.352-86.188-30.277-22.148-65.855-35.938-103.15-39.98 34.074-19.363 72.203-30.496 111.35-32.512 39.141-2.0195 78.211 5.1328 114.1 20.887l15.227-34.273h-.003906c-41.184-18.055-86.012-26.262-130.92-23.961-44.91 2.2969-88.668 15.031-127.79 37.199zm-494.32 47.35 20.98 31.086c27.445-18.523 45.336-48.191 48.906-81.109 3.5742-32.914-7.5312-65.73-30.363-89.711-22.828-23.98-55.062-36.688-88.113-34.734-33.051 1.9531-63.562 18.367-83.41 44.867l30 22.5c13.23-17.664 33.57-28.605 55.602-29.906 22.035-1.3008 43.52 7.168 58.738 23.148 15.223 15.984 22.629 37.859 20.25 59.801-2.3789 21.945-14.301 41.723-32.59 54.074zM37.5 1012.5h150v37.5h-150zm1125 0H1125v-75.75c.011719-3.2891-.84375-6.5195-2.4766-9.375l-72.523-126.75V768.75c0-14.895-5.9102-29.184-16.43-39.727-10.52-10.547-24.793-16.488-39.688-16.523l-337.5-.76953h-168.88c-14.918 0-29.227 5.9258-39.773 16.477-10.551 10.547-16.477 24.855-16.477 39.773v31.352l-78.656 104.79c-3.4414-54.281-15.82-107.62-36.637-157.88l-17.398-41.738h-.003906c-1.9062-4.5781-5.5547-8.2148-10.145-10.113-4.5859-1.8945-9.7344-1.8945-14.32 0-4.5898 1.8984-8.2383 5.5352-10.145 10.113l-17.402 41.738c-50.438 121.98-50.438 258.98 0 380.96l17.398 41.738h.003906c1.9062 4.582 5.5547 8.2188 10.145 10.113 4.5859 1.8945 9.7344 1.8945 14.32 0 4.5898-1.8945 8.2383-5.5312 10.145-10.113l17.398-41.738c1.875-4.332 3.3945-8.7578 5.082-13.125h.003906c1.543 3.0469 3.8984 5.6055 6.8008 7.3984 2.9062 1.793 6.2461 2.75 9.6602 2.7656h114.94c5.3164 21.84 20.184 40.121 40.48 49.777 20.301 9.6562 43.863 9.6562 64.164 0 20.297-9.6562 35.164-27.938 40.48-49.777h248.62c5.3164 21.84 20.184 40.121 40.48 49.777 20.301 9.6562 43.863 9.6562 64.164 0 20.297-9.6562 35.164-27.938 40.48-49.777h114.94c4.9727 0 9.7422-1.9766 13.258-5.4922 3.5156-3.5156 5.4922-8.2852 5.4922-13.258v-55.5h37.5zm-525-75.844v-112.41h131.25v112.41zm131.25 37.5v112.59H637.5v-112.59zM375 936.656l84.375-112.41H487.5l-84.375 112.41zm159.38-112.41h65.625v112.41h-150zm271.88 0h119.7l56.25 112.41H806.26zm217.84 112.41-56.25-112.41h52.5l64.219 112.41zm-11.586-167.91v17.98h-337.5v-37.5l318.75.76953c4.9727 0 9.7422 1.9766 13.258 5.4922 3.5156 3.5156 5.4922 8.2852 5.4922 13.258zm-525-19.594h150v37.594h-168.75v-18.844c0-4.9727 1.9766-9.7422 5.4922-13.258 3.5156-3.5156 8.2852-5.4922 13.258-5.4922zm-206.16 363.56-.09375.20703v-.20703c-46.613-112.75-46.613-239.38 0-352.12v-.20703l.09375.20703c46.613 112.75 46.613 239.38 0 352.12zm74.906-138.56h37.5v112.59h-37.5zm168.75 169.59c-9.9453 0-19.484-3.9492-26.516-10.984-7.0352-7.0312-10.984-16.57-10.984-26.516s3.9492-19.484 10.984-26.516c7.0312-7.0352 16.57-10.984 26.516-10.984s19.484 3.9492 26.516 10.984c7.0352 7.0312 10.984 16.57 10.984 26.516s-3.9492 19.484-10.984 26.516c-7.0312 7.0352-16.57 10.984-26.516 10.984zm0-112.5c-16.441.066406-32.406 5.5352-45.434 15.562-13.031 10.031-22.402 24.062-26.68 39.938h-21.637v-112.59h168.75v112.59h-2.8867c-4.2773-15.875-13.648-29.906-26.68-39.938-13.027-10.027-28.992-15.496-45.434-15.562zm393.75 112.5c-9.9453 0-19.484-3.9492-26.516-10.984-7.0352-7.0312-10.984-16.57-10.984-26.516s3.9492-19.484 10.984-26.516c7.0312-7.0352 16.57-10.984 26.516-10.984s19.484 3.9492 26.516 10.984c7.0352 7.0312 10.984 16.57 10.984 26.516s-3.9492 19.484-10.984 26.516c-7.0312 7.0352-16.57 10.984-26.516 10.984zm72.113-57c-5.668-21.359-20.508-39.105-40.527-48.461-20.02-9.3555-43.152-9.3555-63.172 0-20.02 9.3555-34.859 27.102-40.527 48.461H806.26v-112.59h281.25v112.59z"/><path d="M75 365.62c0 17.406 6.9141 34.098 19.223 46.402 12.305 12.309 28.996 19.223 46.402 19.223h178.12c26.793 0 51.555-14.293 64.953-37.5 13.395-23.207 13.395-51.793 0-75-13.398-23.207-38.16-37.5-64.953-37.5-5.8672 0-11.707.71875-17.398 2.1367-12.801-18.176-31.66-31.191-53.195-36.711-21.531-5.5234-44.328-3.1875-64.293 6.5859-19.969 9.7734-35.797 26.344-44.645 46.738-17.16.36719-33.492 7.4453-45.496 19.711-12.008 12.27-18.727 28.75-18.723 45.914zm65.625-28.125c2.3398.058594 4.6641.40625 6.918 1.0312 4.8789 1.2383 10.051.46484 14.355-2.1445 4.3008-2.6133 7.3711-6.8477 8.5195-11.75 3.543-15.32 13.367-28.445 27.062-36.168 13.699-7.7188 30.016-9.3281 44.957-4.4258 14.941 4.8984 27.133 15.855 33.602 30.188 2.125 4.668 6.0742 8.2578 10.918 9.9375 4.8477 1.6797 10.172 1.3008 14.73-1.0508 10.203-5.2773 22.266-5.5742 32.719-.80078 10.449 4.7695 18.129 14.078 20.828 25.242 2.6953 11.168.11328 22.957-7.0078 31.969-7.1211 9.0156-17.988 14.262-29.477 14.223h-178.12c-10.047 0-19.332-5.3594-24.355-14.062-5.0273-8.7031-5.0273-19.422 0-28.125 5.0234-8.7031 14.309-14.062 24.355-14.062z"/></g></svg>