<svg width="1600" height="1600" viewBox="0 0 1200 1200" xmlns="http://www.w3.org/2000/svg" focusable="false"><path d="M132.21 600.46c0-15.43 6.5195-27.602 19.578-36.492l234.14-153.14c2.9648-2.3711 7.4102-3.5547 13.355-3.5547 10.074 0 19.727 4.4453 28.934 13.355 9.1875 8.9102 13.801 19.281 13.801 31.156 0 11.281-4.4648 19.898-13.398 25.824l-187.79 122.85 187.79 122.87c8.9336 4.7617 13.398 13.355 13.398 25.824 0 11.875-4.5938 22.117-13.801 30.711-9.207 8.6133-18.859 12.91-28.934 12.91-5.9492 0-10.395-1.1836-13.355-3.5547l-234.14-153.16c-13.059-8.9141-19.578-20.766-19.578-35.602zm359.03 269.13c-.78125-4.6797-.65625-9.207.40234-13.609l163.3-532.04c2.8984-11.324 10.773-18.078 23.664-20.258 9.3555-1.5859 18.395.19141 27.094 5.3359 8.6992 5.1641 13.844 12.426 15.41 21.781.89062 5.2695.50781 10.16-1.1211 14.648l-162.88 529.25c-3.3867 12-12.105 19.199-26.141 21.59-9.9688 1.6914-18.711-.29688-26.289-5.9258-7.5781-5.6562-12.043-12.578-13.441-20.77zm281.43-89.746c-9.207-8.5938-13.801-18.84-13.801-30.711 0-11.875 4.1484-20.469 12.469-25.824l187.86-122.87-187.86-122.85c-8.3203-6.5391-12.469-15.133-12.469-25.824 0-11.875 4.5938-22.246 13.801-31.156 9.207-8.9102 18.84-13.355 28.934-13.355 5.3359 0 9.4844 1.207 12.469 3.5547l234.14 153.14c13.039 8.9102 19.578 21.082 19.578 36.492 0 15.453-6.5391 27.305-19.578 35.625l-234.14 153.14c-2.9844 2.3711-7.1328 3.5547-12.469 3.5547-10.098 0-19.727-4.2969-28.934-12.91z"/></svg>