<?xml version="1.0" encoding="UTF-8"?>
<svg width="80px" height="80px" viewBox="0 0 80 80" version="1.1" xmlns="http://www.w3.org/2000/svg" xmlns:xlink="http://www.w3.org/1999/xlink">
    <!-- Generator: Sketch 63.1 (92452) - https://sketch.com -->
    <title>iconmonstr-linkedin-4</title>
    <desc>Created with Sketch.</desc>
    <g id="Welcome" stroke="none" stroke-width="1" fill="none" fill-rule="evenodd">
        <g id="Desktop-HD-light" transform="translate(-1798.000000, -3312.000000)" fill="#EEC747" fill-rule="nonzero">
            <g id="Footer-light" transform="translate(0.000000, 3046.000000)">
                <g id="iconmonstr-linkedin-4" transform="translate(1798.000000, 266.000000)">
                    <path d="M40,0 C17.91,0 0,17.91 0,40 C0,62.09 17.91,80 40,80 C62.09,80 80,62.09 80,40 C80,17.91 62.09,0 40,0 Z M33.3333333,53.3333333 L26.6666667,53.3333333 L26.6666667,33.3333333 L33.3333333,33.3333333 L33.3333333,53.3333333 Z M30,30.3633333 C27.9766667,30.3633333 26.3333333,28.71 26.3333333,26.6666667 C26.3333333,24.6266667 27.9733333,22.97 30,22.97 C32.0266667,22.97 33.6666667,24.6266667 33.6666667,26.6666667 C33.6666667,28.71 32.0233333,30.3633333 30,30.3633333 Z M56.6666667,53.3333333 L50.0066667,53.3333333 L50.0066667,43.7966667 C50.0066667,37.5266667 43.3333333,38.0566667 43.3333333,43.7966667 L43.3333333,53.3333333 L36.6666667,53.3333333 L36.6666667,33.3333333 L43.3333333,33.3333333 L43.3333333,36.9766667 C46.24,31.59 56.6666667,31.19 56.6666667,42.1366667 L56.6666667,53.3333333 Z" id="Shape"></path>
                </g>
            </g>
        </g>
    </g>
</svg>