<svg xmlns="http://www.w3.org/2000/svg" viewBox="0 0 1200 1200" xml:space="preserve"><path d="M376.8 342.3c13.6-13.6 28.5-26.2 44.2-37.4 80.3-57.1 181.6-77.2 277.8-55 7.2 1.7 12.6 7.5 13.7 14.8 1.1 7.2-2.2 14.5-8.6 18.2-8.2 4.9-15 9.3-21.2 13.7-14.2 10.1-27.5 21.4-39.7 33.5C536.1 437 522.2 604.2 610 727.6c43.8 61.6 108.6 104.9 182.2 121.9 7.2 1.6 12.6 7.5 13.7 14.8 1.1 7.3-2.2 14.5-8.6 18.2-153.1 91.3-354.1 49-457.6-96.4-97.7-137.8-82.3-324.5 37.1-443.8z"/><path d="M647.5 278.2c-72.6-6.2-145.5 13.4-205.5 56-14.2 10.1-27.5 21.3-39.7 33.5-106.9 106.9-120.8 274.1-33 397.5 84.1 118.1 240.1 160.3 370.8 106-63.8-24-119.3-66.6-159.3-122.7-98-137.8-82.5-324.4 36.9-443.8 9.3-9.4 19.3-18.3 29.8-26.5z"/></svg>