<svg width="80" height="80" viewBox="0 0 80 80" xmlns="http://www.w3.org/2000/svg" focusable="false"><title>GitHub</title><path class="logo-background" d="M40 0C17.913333 0 0 18.308 0 40.888889 0 58.954963 11.46 74.28148 27.356667 79.689037 29.353333 80.067259 30 78.799704 30 77.722963v-7.612148c-11.126667 2.473778-13.443333-4.82489-13.443333-4.82489-1.82-4.726073-4.443334-5.983407-4.443334-5.983407-3.63-2.538518.276667-2.484.276667-2.484 4.016667.286223 6.13 4.214964 6.13 4.214964 3.566667 6.249185 9.356667 4.443259 11.64 3.397185.356667-2.640741 1.393333-4.446667 2.54-5.465482-8.883333-1.03926-18.223333-4.545481-18.223333-20.209333 0-4.467111 1.563333-8.113037 4.12-10.97526-.413334-1.032444-1.783334-5.192888.39-10.821925 0 0 3.36-1.097185 11.003333 4.19111 3.19-.90637 6.61-1.359555 10.01-1.376592 3.4.017037 6.823333.470222 10.02 1.376593 7.636667-5.288297 10.99-4.191111 10.99-4.191111 2.176667 5.632444.806667 9.792889.393333 10.821926C63.97 30.642815 65.52 34.292148 65.52 38.755852c0 15.70474-9.356667 19.16326-18.263333 20.17526C48.69 60.198666 50 62.686073 50 66.50237v11.220593c0 1.086963.64 2.36474 2.67 1.962667C68.553333 74.27126 80 58.948148 80 40.888889 80 18.308 62.09 0 40 0z" fill="none" fill-rule="nonzero"/></svg>