<svg width="80" height="80" viewBox="0 0 80 80" xmlns="http://www.w3.org/2000/svg" focusable="false"><title>Codepen</title><g fill-rule="nonzero" fill="none"><circle class="logo-background" fill="none" cx="40" cy="40" r="40"/><path class="logo-foreground" d="M64.96875 32.015625c-.015625-.0625-.015625-.125-.03125-.171875-.015625-.03125-.015625-.0625-.03125-.109375s-.03125-.109375-.0625-.15625c-.015625-.03125-.03125-.0625-.046875-.109375s-.046875-.09375-.078125-.140625c-.015625-.03125-.03125-.0625-.0625-.09375-.03125-.046875-.0625-.09375-.09375-.125-.015625-.03125-.046875-.0625-.078125-.09375-.03125-.046875-.0625-.078125-.109375-.109375l-.078125-.078125c-.03125-.03125-.078125-.0625-.125-.109375-.03125-.03125-.0625-.046875-.09375-.078125l-.03125-.03125-22.859375-15.25c-.71875-.484375-1.65625-.484375-2.390625 0L15.9375 30.59375l-.03125.03125c-.03125.015625-.0625.046875-.09375.078125-.046875.03125-.078125.0625-.125.109375l-.078125.078125L15.5 31c-.03125.03125-.046875.0625-.078125.09375-.03125.046875-.0625.09375-.09375.125-.015625.03125-.046875.0625-.0625.09375-.03125.046875-.046875.09375-.078125.140625-.015625.03125-.03125.0625-.046875.109375s-.03125.109375-.0625.15625c-.015625.03125-.015625.0625-.03125.109375-.015625.0625-.03125.125-.03125.171875 0 .03125-.015625.0625-.015625.09375-.015625.09375-.015625.1875-.015625.28125v15.234375c0 .09375 0 .1875.015625.28125 0 .03125.015625.0625.015625.09375.015625.0625.015625.125.03125.1875.015625.03125.015625.0625.03125.109375s.03125.109375.0625.15625c.015625.03125.03125.0625.046875.109375s.046875.09375.078125.140625c.015625.03125.046875.0625.0625.09375.03125.046875.0625.09375.09375.125.015625.03125.046875.0625.078125.09375.03125.046875.0625.078125.109375.109375l.078125.078125c.03125.03125.078125.0625.125.109375.03125.03125.0625.046875.09375.078125l.03125.03125 22.859375 15.234375c.359375.234375.78125.359375 1.1875.359375.421875 0 .828125-.125 1.1875-.359375L64.03125 49.40625c.015625-.015625.03125-.015625.03125-.03125.03125-.03125.0625-.046875.09375-.078125.046875-.03125.078125-.0625.125-.109375l.078125-.078125L64.46875 49c.03125-.03125.046875-.0625.078125-.09375.03125-.046875.0625-.09375.09375-.125.015625-.03125.046875-.0625.0625-.09375.03125-.046875.046875-.09375.078125-.140625.015625-.03125.03125-.0625.046875-.109375s.03125-.109375.0625-.15625c.015625-.03125.03125-.0625.03125-.109375.015625-.0625.03125-.125.03125-.1875 0-.03125.015625-.0625.015625-.09375.015625-.09375.015625-.1875.015625-.28125V32.375c0-.09375 0-.1875-.015625-.28125.015625-.03125 0-.046875 0-.078125zM40 45.078125L32.40625 40 40 34.921875 47.59375 40 40 45.078125zM37.859375 31.1875l-9.3125 6.234375-7.515625-5.03125 16.828125-11.218768V31.1875zM24.671875 40l-5.375 3.59375v-7.1875L24.671875 40zm3.859375 2.578125l9.3125 6.234375v10.015625l-16.828125-11.21875 7.515625-5.03125zM42.140625 48.8125l9.3125-6.234375 7.515625 5.03125-16.828125 11.21875V48.8125zM55.328125 40l5.375-3.59375v7.1875L55.328125 40zm-3.859375-2.578125l-9.3125-6.234375V21.171875l16.828125 11.21875-7.515625 5.03125z" fill="none"/></g></svg>