<svg width="80" height="80" viewBox="0 0 80 80" xmlns="http://www.w3.org/2000/svg" focusable="false"><title>LinkedIn</title><path class="logo-background" d="M40 0C17.91 0 0 17.91 0 40s17.91 40 40 40 40-17.91 40-40S62.09 0 40 0zm-6.666667 53.333333h-6.666666v-20h6.666666v20zM30 30.363333c-2.023333 0-3.666667-1.653333-3.666667-3.696666 0-2.04 1.64-3.696667 3.666667-3.696667 2.026667 0 3.666667 1.656667 3.666667 3.696667 0 2.043333-1.643334 3.696666-3.666667 3.696666zm26.666667 22.97h-6.66v-9.536666c0-6.27-6.673334-5.74-6.673334 0v9.536666h-6.666666v-20h6.666666v3.643334C46.24 31.59 56.666667 31.19 56.666667 42.136667v11.196666z" fill="none" fill-rule="nonzero"/></svg>