<svg width="80" height="80" viewBox="0 0 80 80" xmlns="http://www.w3.org/2000/svg" focusable="false"><title>GitLab</title><g fill-rule="nonzero" fill="none"><circle class="logo-background" fill="none" cx="40" cy="40" r="40"/><path class="logo-foreground" d="M64.28 42.7l-2.56-7.86c-.02-.08-.04-.14-.06-.22L56.5 18.8c-.28-.84-1.06-1.4-1.96-1.4-.88 0-1.66.56-1.92 1.4l-4.9 15.08H32.26l-4.9-15.08c-.26-.84-1.04-1.4-1.92-1.4h-.02c-.88 0-1.66.56-1.94 1.4l-5.14 15.84c0 .02-.02.02-.02.04l-2.6 8.02c-.4 1.2.04 2.52 1.06 3.28L39.3 62.36c.4.3.96.3 1.36 0L63.2 46c1.04-.78 1.46-2.1 1.08-3.3zM30.6 36.2l6.28 19.32L21.8 36.2h8.8zm12.52 19.32L49.14 37l.26-.8h8.8L44.56 53.68l-1.44 1.84zm11.46-35.24L59 33.86h-8.84l4.42-13.58zm-7.6 15.9L42.6 49.64 40 57.66l-6.98-21.48h13.96zm-21.56-15.9l4.42 13.58h-8.82l4.4-13.58zM18.14 44.1c-.22-.16-.3-.44-.22-.7l1.94-5.94 14.2 18.2L18.14 44.1zm43.72 0L45.94 55.66l.06-.06 14.14-18.12 1.94 5.94c.08.24 0 .52-.22.68z" fill="none"/></g></svg>