<?xml version="1.0" encoding="UTF-8"?>
<svg width="80px" height="80px" viewBox="0 0 80 80" version="1.1" xmlns="http://www.w3.org/2000/svg" xmlns:xlink="http://www.w3.org/1999/xlink">
    <!-- Generator: Sketch 63.1 (92452) - https://sketch.com -->
    <title>iconmonstr-github-1</title>
    <desc>Created with Sketch.</desc>
    <g id="Welcome" stroke="none" stroke-width="1" fill="none" fill-rule="evenodd">
        <g id="Desktop-HD-light" transform="translate(-1572.000000, -3425.000000)" fill="#EEC747" fill-rule="nonzero">
            <g id="Footer-light" transform="translate(0.000000, 3046.000000)">
                <g id="iconmonstr-github-1" transform="translate(1572.000000, 379.000000)">
                    <path d="M40,-2.02109934e-13 C17.9133333,-2.02109934e-13 0,18.308 0,40.8888889 C0,58.954963 11.46,74.2814815 27.3566667,79.689037 C29.3533333,80.0672593 30,78.7997037 30,77.722963 L30,70.1108148 C18.8733333,72.5845926 16.5566667,65.2859259 16.5566667,65.2859259 C14.7366667,60.5598519 12.1133333,59.3025185 12.1133333,59.3025185 C8.48333333,56.764 12.39,56.8185185 12.39,56.8185185 C16.4066667,57.1047407 18.52,61.0334815 18.52,61.0334815 C22.0866667,67.2826667 27.8766667,65.4767407 30.16,64.4306667 C30.5166667,61.7899259 31.5533333,59.984 32.7,58.9651852 C23.8166667,57.9259259 14.4766667,54.4197037 14.4766667,38.7558519 C14.4766667,34.2887407 16.04,30.6428148 18.5966667,27.7805926 C18.1833333,26.7481481 16.8133333,22.5877037 18.9866667,16.9586667 C18.9866667,16.9586667 22.3466667,15.8614815 29.99,21.1497778 C33.18,20.2434074 36.6,19.7902222 40,19.7731852 C43.4,19.7902222 46.8233333,20.2434074 50.02,21.1497778 C57.6566667,15.8614815 61.01,16.9586667 61.01,16.9586667 C63.1866667,22.5911111 61.8166667,26.7515556 61.4033333,27.7805926 C63.97,30.6428148 65.52,34.2921481 65.52,38.7558519 C65.52,54.4605926 56.1633333,57.9191111 47.2566667,58.9311111 C48.69,60.1986667 50,62.6860741 50,66.5023704 L50,77.722963 C50,78.8099259 50.64,80.0877037 52.67,79.6856296 C68.5533333,74.2712593 80,58.9481481 80,40.8888889 C80,18.308 62.09,-2.02109934e-13 40,-2.02109934e-13 Z" id="Path"></path>
                </g>
            </g>
        </g>
    </g>
</svg>