<?xml version="1.0" encoding="UTF-8"?>
<svg width="80px" height="80px" viewBox="0 0 80 80" version="1.1" xmlns="http://www.w3.org/2000/svg" xmlns:xlink="http://www.w3.org/1999/xlink">
    <!-- Generator: Sketch 63.1 (92452) - https://sketch.com -->
    <title>iconfinder_mail_287692</title>
    <desc>Created with Sketch.</desc>
    <g id="Welcome" stroke="none" stroke-width="1" fill="none" fill-rule="evenodd">
        <g id="Desktop-HD-light" transform="translate(-1572.000000, -3312.000000)" fill-rule="nonzero">
            <g id="Footer-light" transform="translate(0.000000, 3046.000000)">
                <g id="iconfinder_mail_287692" transform="translate(1572.000000, 266.000000)">
                    <path d="M40,80 C62.0913911,80 80,62.0913911 80,40 C80,17.9086089 62.0913911,0 40,0 C17.9086089,0 0,17.9086089 0,40 C0,62.0913911 17.9086089,80 40,80 Z" id="Path" fill="#EEC747"></path>
                    <path d="M40,44.6153847 L63.0769231,24.6153847 L16.9230769,24.6153847 L40,44.6153847 Z M33.766902,42.4014048 L40,47.5176532 L46.1354417,42.4014048 L63.0769231,56.9230769 L16.9230769,56.9230769 L33.766902,42.4014048 Z M15.3846153,55.3846153 L15.3846153,26.1538461 L32.3076923,40.7692308 L15.3846153,55.3846153 Z M64.6153847,55.3846153 L64.6153847,26.1538461 L47.6923077,40.7692308 L64.6153847,55.3846153 Z" id="Shape" fill="#1A2839"></path>
                </g>
            </g>
        </g>
    </g>
</svg>