<svg width="80" height="80" viewBox="0 0 80 80" xmlns="http://www.w3.org/2000/svg" focusable="false"><title>Twitter</title><g fill-rule="nonzero" fill="none"><circle cx="40" cy="40" r="40" class="logo-background" fill="none"/><path class="logo-foreground" d="M32.68 61.1c17.74 0 27.44-14.7 27.44-27.44 0-.42 0-.84-.02-1.24 1.88-1.36 3.52-3.06 4.82-5-1.72.76-3.58 1.28-5.54 1.52 2-1.2 3.52-3.08 4.24-5.34-1.86 1.1-3.92 1.9-6.12 2.34-1.76-1.88-4.26-3.04-7.04-3.04-5.32 0-9.64 4.32-9.64 9.64 0 .76.08 1.5.26 2.2-8.02-.4-15.12-4.24-19.88-10.08-.82 1.42-1.3 3.08-1.3 4.84 0 3.34 1.7 6.3 4.3 8.02-1.58-.04-3.06-.48-4.36-1.2v.12c0 4.68 3.32 8.56 7.74 9.46-.8.22-1.66.34-2.54.34-.62 0-1.22-.06-1.82-.18 1.22 3.84 4.78 6.62 9 6.7-3.3 2.58-7.46 4.12-11.98 4.12-.78 0-1.54-.04-2.3-.14 4.22 2.76 9.3 4.36 14.74 4.36" fill="none"/></g></svg>