<?xml version="1.0" encoding="UTF-8"?>
<svg width="80px" height="80px" viewBox="0 0 80 80" version="1.1" xmlns="http://www.w3.org/2000/svg" xmlns:xlink="http://www.w3.org/1999/xlink">
    <!-- Generator: Sketch 63.1 (92452) - https://sketch.com -->
    <title>Twitter_Social_Icon_Circle_Color</title>
    <desc>Created with Sketch.</desc>
    <g id="Welcome" stroke="none" stroke-width="1" fill="none" fill-rule="evenodd">
        <g id="Desktop-HD-light" transform="translate(-1685.000000, -3312.000000)" fill-rule="nonzero">
            <g id="Footer-light" transform="translate(0.000000, 3046.000000)">
                <g id="Twitter_Social_Icon_Circle_Color" transform="translate(1685.000000, 266.000000)">
                    <g id="Dark_Blue" fill="#EEC747">
                        <circle id="Oval" cx="40" cy="40" r="40"></circle>
                    </g>
                    <g id="Logo__x2014__FIXED" transform="translate(17.800000, 22.800000)" fill="#1A2839">
                        <path d="M14.88,38.3 C32.62,38.3 42.32,23.6 42.32,10.86 C42.32,10.44 42.32,10.02 42.3,9.62 C44.18,8.26 45.82,6.56 47.12,4.62 C45.4,5.38 43.54,5.9 41.58,6.14 C43.58,4.94 45.1,3.06 45.82,0.8 C43.96,1.9 41.9,2.7 39.7,3.14 C37.94,1.26 35.44,0.1 32.66,0.1 C27.34,0.1 23.02,4.42 23.02,9.74 C23.02,10.5 23.1,11.24 23.28,11.94 C15.26,11.54 8.16,7.7 3.4,1.86 C2.58,3.28 2.1,4.94 2.1,6.7 C2.1,10.04 3.8,13 6.4,14.72 C4.82,14.68 3.34,14.24 2.04,13.52 C2.04,13.56 2.04,13.6 2.04,13.64 C2.04,18.32 5.36,22.2 9.78,23.1 C8.98,23.32 8.12,23.44 7.24,23.44 C6.62,23.44 6.02,23.38 5.42,23.26 C6.64,27.1 10.2,29.88 14.42,29.96 C11.12,32.54 6.96,34.08 2.44,34.08 C1.66,34.08 0.9,34.04 0.14,33.94 C4.36,36.7 9.44,38.3 14.88,38.3" id="Path"></path>
                    </g>
                </g>
            </g>
        </g>
    </g>
</svg>