<svg width="1200px" height="1200px" version="1.1" viewBox="0 0 1200 1200" xmlns="http://www.w3.org/2000/svg">
 <path d="m600 275.05c-8.3477 0-15.113 6.7656-15.113 15.113v136.03c0 8.3477 6.7656 15.113 15.113 15.113s15.113-6.7656 15.113-15.113v-136.03c0-8.3477-6.7656-15.113-15.113-15.113zm-219.16 90.688c-3.8672 0-7.6758 1.5352-10.629 4.4883-5.9023 5.9023-5.9023 15.59 0 21.492l96.117 96.117c5.9023 5.9023 15.59 5.9023 21.492 0 5.9023-5.9023 5.9023-15.59 0-21.492l-96.117-96.121c-2.9492-2.9531-6.9961-4.4883-10.863-4.4883zm438.31 0c-3.8672 0-7.9102 1.5352-10.863 4.4883l-96.117 96.117c-5.9023 5.9023-5.9023 15.59 0 21.492 5.9023 5.9023 15.59 5.9023 21.492 0l96.117-96.117c5.9023-5.9023 5.9023-15.59 0-21.492-2.9492-2.957-6.7578-4.4922-10.625-4.4922zm-219.16 120.91c-62.426 0-113.36 50.93-113.36 113.36 0 62.426 50.93 113.36 113.36 113.36s113.36-50.93 113.36-113.36c0-62.426-50.93-113.36-113.36-113.36zm0 30.23c46.09 0 83.129 37.039 83.129 83.129 0 46.09-37.039 83.129-83.129 83.129s-83.129-37.039-83.129-83.129c0-46.09 37.039-83.129 83.129-83.129zm-309.84 68.016c-8.3477 0-15.113 6.7656-15.113 15.113 0 8.3477 6.7656 15.113 15.113 15.113h136.03c8.3477 0 15.113-6.7656 15.113-15.113 0-8.3477-6.7656-15.113-15.113-15.113zm483.66 0c-8.3477 0-15.113 6.7656-15.113 15.113 0 8.3477 6.7656 15.113 15.113 15.113h136.03c8.3477 0 15.113-6.7656 15.113-15.113 0-8.3477-6.7656-15.113-15.113-15.113zm-296.62 122.8c-3.8672 0-7.9141 1.5352-10.863 4.4883l-96.117 96.117c-5.9023 5.9023-5.9023 15.59 0 21.492s15.59 5.9023 21.492 0l96.117-96.117c5.9023-5.9023 5.9023-15.59 0-21.492-2.9531-2.9492-6.7578-4.4883-10.629-4.4883zm245.61 0c-3.8672 0-7.6758 1.5352-10.629 4.4883-5.9023 5.9023-5.9023 15.59 0 21.492l96.117 96.117c5.9023 5.9023 15.59 5.9023 21.492 0s5.9023-15.59 0-21.492l-96.113-96.125c-2.9531-2.9492-6.9961-4.4883-10.863-4.4883zm-122.8 51.012c-8.3477 0-15.113 6.7656-15.113 15.113v136.03c0 8.3477 6.7656 15.113 15.113 15.113s15.113-6.7656 15.113-15.113v-136.03c0-8.3477-6.7656-15.113-15.113-15.113z"/>
</svg>
