<?xml version="1.0" encoding="utf-8"?>
<!-- Generator: Adobe Illustrator 26.0.3, SVG Export Plug-In . SVG Version: 6.00 Build 0)  -->
<svg version="1.1" id="Layer_1" xmlns="http://www.w3.org/2000/svg" xmlns:xlink="http://www.w3.org/1999/xlink" x="0px" y="0px"
	 viewBox="0 0 1000 1000" style="enable-background:new 0 0 1000 1000;" xml:space="preserve">
<path d="M901.2,209.4c-1.7-10.2-9.9-18-20.3-19.3c-116.5-14.3-205.2,6-263.4,60.2c-71.3,66.4-75,165.1-73.4,204.6
	c0.6,13.9,1.9,22.5,2,23.5c0,0.4,0.1,0.6,0.1,1c-12.2,25.5-23.1,52.8-32,81.7c-12.6-51.5-29.2-95.9-44.9-130.9
	c0.5-3.4,1.7-11.6,2.6-23.3c3.1-41.9,2.2-147.2-71.6-220.1c-60.3-59.6-154.2-83.9-278.9-72.4c-10.2,1-18.7,8.6-20.8,18.7
	c-1.2,6.1-29.7,150.8,56.7,246c46.9,51.6,117.4,77.7,210.2,77.7c19.3,0,39.5-1.1,60.7-3.4c31.8,72.1,54.1,155.6,58.8,241.6
	c-5.2,0.5-10.6,1.1-15.7,2.1c-21.6,4.1-42.3,12.9-61.6,26.2c-27.4-6-51.1-3.4-70.6,8c-12.2,7.1-22.4,17.4-29.8,30.3
	c-48.5,11.3-76.6,48.1-78,102.7c-0.1,6.3,2.2,12.4,6.6,17c4.4,4.5,10.4,7.1,16.8,7.1h513.1c6.3,0,12.3-2.6,16.8-7.1
	c4.4-4.5,6.8-10.7,6.6-17c-1.2-54.6-29.5-91.4-78-102.7c-7.5-12.9-17.5-23.3-29.8-30.3c-19.5-11.3-43.2-13.9-70.6-8
	c-19.3-13.3-39.9-22.1-61.6-26.2c-5-1-9.9-1.6-15-2.1c4.8-69.6,24.4-136.7,51.4-193.6c23.6,3.1,46,4.7,67.2,4.7
	c80.5,0,142.9-22.5,186-67.3C924.8,351.7,902.2,215.2,901.2,209.4z M192.3,347.4c-54.8-60.1-52.1-150.2-48-187.5
	c101.1-6.5,176.2,13.8,223.5,60.4c37.1,36.7,51.4,84.7,56.2,124.2c-34.9-55.6-75.4-101.2-116.4-130.1c-10.6-7.5-25.1-4.8-32.6,5.7
	c-7.5,10.7-4.8,25.4,5.7,32.8c44.3,31.2,89.2,86.2,125.7,155.1C307.9,415.5,235.9,395.3,192.3,347.4z M593.8,767.3
	c6,4.7,13.8,6.2,21,4.1c32-9.5,52-2.9,61.3,20.1c3.1,7.8,10.3,13.4,18.7,14.5c25.2,3.4,40.3,14.5,46.5,35.3H281.8
	c6.3-20.8,21.3-32,46.5-35.3c8.3-1.1,15.4-6.6,18.7-14.5c9.2-23,29.2-29.5,61.3-20.1c7.2,2.1,15,0.6,21-4.1
	c16-12.6,33.2-20.8,51-24.1c7-1.4,14.2-2,21.4-2c3.5,0,16.4,0,19.9,0c7.2-0.1,14.4,0.6,21.4,2C560.6,746.7,577.8,754.8,593.8,767.3z
	 M807.5,405.8c-40.9,42.5-106.7,59.6-195.6,50.7c25.5-42.3,55-76,83.9-96.5c10.6-7.5,13.2-22.1,5.7-32.8s-22-13.2-32.6-5.7
	c-25.4,17.9-51.2,44.5-75.1,77.5c5.5-36.7,19.9-81.2,55.5-114.3c44.8-41.7,114.7-58.4,207.7-50C859.7,270.3,859.3,352.1,807.5,405.8
	z"/>
</svg>
