<svg xmlns="http://www.w3.org/2000/svg" viewBox="0 0 1000 1000" xml:space="preserve" focusable="false"><path d="M901.2 209.4c-1.7-10.2-9.9-18-20.3-19.3-116.5-14.3-205.2 6-263.4 60.2-71.3 66.4-75 165.1-73.4 204.6.6 13.9 1.9 22.5 2 23.5 0 .4.1.6.1 1-12.2 25.5-23.1 52.8-32 81.7-12.6-51.5-29.2-95.9-44.9-130.9.5-3.4 1.7-11.6 2.6-23.3 3.1-41.9 2.2-147.2-71.6-220.1-60.3-59.6-154.2-83.9-278.9-72.4-10.2 1-18.7 8.6-20.8 18.7-1.2 6.1-29.7 150.8 56.7 246 46.9 51.6 117.4 77.7 210.2 77.7 19.3 0 39.5-1.1 60.7-3.4C460 525.5 482.3 609 487 695c-5.2.5-10.6 1.1-15.7 2.1-21.6 4.1-42.3 12.9-61.6 26.2-27.4-6-51.1-3.4-70.6 8-12.2 7.1-22.4 17.4-29.8 30.3-48.5 11.3-76.6 48.1-78 102.7-.1 6.3 2.2 12.4 6.6 17 4.4 4.5 10.4 7.1 16.8 7.1h513.1c6.3 0 12.3-2.6 16.8-7.1 4.4-4.5 6.8-10.7 6.6-17-1.2-54.6-29.5-91.4-78-102.7-7.5-12.9-17.5-23.3-29.8-30.3-19.5-11.3-43.2-13.9-70.6-8-19.3-13.3-39.9-22.1-61.6-26.2-5-1-9.9-1.6-15-2.1 4.8-69.6 24.4-136.7 51.4-193.6 23.6 3.1 46 4.7 67.2 4.7 80.5 0 142.9-22.5 186-67.3 84-87.1 61.4-223.6 60.4-229.4zm-708.9 138c-54.8-60.1-52.1-150.2-48-187.5 101.1-6.5 176.2 13.8 223.5 60.4C404.9 257 419.2 305 424 344.5c-34.9-55.6-75.4-101.2-116.4-130.1-10.6-7.5-25.1-4.8-32.6 5.7-7.5 10.7-4.8 25.4 5.7 32.8 44.3 31.2 89.2 86.2 125.7 155.1-98.5 7.5-170.5-12.7-214.1-60.6zm401.5 419.9c6 4.7 13.8 6.2 21 4.1 32-9.5 52-2.9 61.3 20.1 3.1 7.8 10.3 13.4 18.7 14.5 25.2 3.4 40.3 14.5 46.5 35.3H281.8c6.3-20.8 21.3-32 46.5-35.3 8.3-1.1 15.4-6.6 18.7-14.5 9.2-23 29.2-29.5 61.3-20.1 7.2 2.1 15 .6 21-4.1 16-12.6 33.2-20.8 51-24.1 7-1.4 14.2-2 21.4-2h19.9c7.2-.1 14.4.6 21.4 2 17.6 3.5 34.8 11.6 50.8 24.1zm213.7-361.5c-40.9 42.5-106.7 59.6-195.6 50.7 25.5-42.3 55-76 83.9-96.5 10.6-7.5 13.2-22.1 5.7-32.8s-22-13.2-32.6-5.7c-25.4 17.9-51.2 44.5-75.1 77.5 5.5-36.7 19.9-81.2 55.5-114.3 44.8-41.7 114.7-58.4 207.7-50 2.7 35.6 2.3 117.4-49.5 171.1z"/></svg>