<?xml version="1.0" encoding="utf-8"?>
<!-- Generator: Adobe Illustrator 26.0.3, SVG Export Plug-In . SVG Version: 6.00 Build 0)  -->
<svg version="1.1" id="Layer_1" xmlns="http://www.w3.org/2000/svg" xmlns:xlink="http://www.w3.org/1999/xlink" x="0px" y="0px"
	 viewBox="0 0 100 100" style="enable-background:new 0 0 100 100;" xml:space="preserve">
<style type="text/css">
	.st0{stroke:#000000;stroke-miterlimit:10;}
</style>
<g>
	<path class="st0" d="M71.1,45.8c0,6.1,5,11.1,11.1,11.1c6.1,0,11.1-5,11.1-11.1s-5-11.1-11.1-11.1C76.1,34.7,71.1,39.7,71.1,45.8z
		 M89.1,45.8c0,3.7-3.1,6.8-6.8,6.8s-6.8-3.1-6.8-6.8c0-3.7,3.1-6.8,6.8-6.8S89.1,42.1,89.1,45.8z"/>
	<path class="st0" d="M27.7,62.7c0.4,0,0.8-0.1,1.1-0.3l22.6-13.6c0.9-0.6,1.3-1.7,0.9-2.7l-6.7-15.2c-0.6-1.5-0.5-3,0.1-4.3
		c0.6-1.2,1.8-2,3.2-2.3l24.9-5.6c0.9-0.2,1.7,0,2.5,0.5c0.7,0.5,1.2,1.3,1.3,2.1c0.2,1.6-0.9,3.2-2.4,3.5l-17.3,3.5
		c-1.3,0.3-2.3,1.1-2.9,2.3c-0.5,1.2-0.5,2.5,0.1,3.7l15.6,27.1c0.6,1,1.9,1.4,2.9,0.8c1-0.6,1.4-1.9,0.8-2.9L59.1,32.4l17-3.4
		c3.8-0.8,6.3-4.5,5.8-8.3c-0.3-2-1.4-3.9-3.1-5.1S75,14,72.9,14.4L48,20c-2.7,0.6-4.9,2.1-6.1,4.5c-1.3,2.4-1.4,5.3-0.3,8l6,13.5
		l-21,12.6c-1,0.6-1.3,1.9-0.7,3C26.2,62.3,26.9,62.7,27.7,62.7z"/>
	<path class="st0" d="M96.3,69.2c-3.2,0-4.6-1-6.5-2.3c-2.1-1.5-4.4-3.1-9-3.1s-6.9,1.7-9,3.1c-1.8,1.3-3.3,2.3-6.5,2.3
		c-3.2,0-4.6-1-6.5-2.3c-2.1-1.5-4.4-3.1-9-3.1s-6.9,1.7-9,3.1c-1.8,1.3-3.3,2.3-6.5,2.3c-3.2,0-4.6-1-6.5-2.3
		c-2.1-1.5-4.4-3.1-9-3.1c-4.5,0-6.9,1.7-9,3.1c-1.8,1.3-3.3,2.3-6.5,2.3c-1.2,0-2.2,1-2.2,2.2s1,2.2,2.2,2.2c4.5,0,6.9-1.7,9-3.1
		c1.8-1.3,3.3-2.3,6.5-2.3s4.6,1,6.5,2.3c2.1,1.5,4.4,3.1,9,3.1c4.5,0,6.9-1.7,9-3.1C45.4,69,46.8,68,50,68c3.2,0,4.6,1,6.5,2.3
		c2.1,1.5,4.4,3.1,9,3.1c4.5,0,6.9-1.7,9-3.1c1.8-1.3,3.3-2.3,6.5-2.3c3.2,0,4.6,1,6.5,2.3c2.1,1.5,4.4,3.1,9,3.1
		c1.2,0,2.2-1,2.2-2.2S97.5,69.2,96.3,69.2z"/>
	<path class="st0" d="M96.3,81.4c-3.2,0-4.6-1-6.5-2.3c-2.1-1.5-4.4-3.1-9-3.1s-6.9,1.7-9,3.1c-1.8,1.3-3.3,2.3-6.5,2.3
		c-3.2,0-4.6-1-6.5-2.3c-2.1-1.5-4.4-3.1-9-3.1s-6.9,1.7-9,3.1c-1.8,1.3-3.3,2.3-6.5,2.3c-3.2,0-4.6-1-6.5-2.3
		c-2.1-1.5-4.4-3.1-9-3.1c-4.5,0-6.9,1.7-9,3.1c-1.8,1.3-3.3,2.3-6.5,2.3c-1.2,0-2.2,1-2.2,2.2s1,2.2,2.2,2.2c4.5,0,6.9-1.7,9-3.1
		c1.8-1.3,3.3-2.3,6.5-2.3s4.6,1,6.5,2.3c2.1,1.5,4.4,3.1,9,3.1c4.5,0,6.9-1.7,9-3.1c1.8-1.3,3.3-2.3,6.5-2.3c3.2,0,4.6,1,6.5,2.3
		c2.1,1.5,4.4,3.1,9,3.1c4.5,0,6.9-1.7,9-3.1c1.8-1.3,3.3-2.3,6.5-2.3c3.2,0,4.6,1,6.5,2.3c2.1,1.5,4.4,3.1,9,3.1
		c1.2,0,2.2-1,2.2-2.2S97.5,81.4,96.3,81.4z"/>
</g>
</svg>
