<svg version="1.1" id="Layer_1" xmlns="http://www.w3.org/2000/svg" x="0" y="0" viewBox="0 0 100 100" xml:space="preserve" focusable="false"><path d="M71.1 45.8c0 6.1 5 11.1 11.1 11.1s11.1-5 11.1-11.1-5-11.1-11.1-11.1-11.1 5-11.1 11.1zm18 0c0 3.7-3.1 6.8-6.8 6.8s-6.8-3.1-6.8-6.8c0-3.7 3.1-6.8 6.8-6.8s6.8 3.1 6.8 6.8z"/><path d="M27.7 62.7c.4 0 .8-.1 1.1-.3l22.6-13.6c.9-.6 1.3-1.7.9-2.7l-6.7-15.2c-.6-1.5-.5-3 .1-4.3.6-1.2 1.8-2 3.2-2.3l24.9-5.6c.9-.2 1.7 0 2.5.5.7.5 1.2 1.3 1.3 2.1.2 1.6-.9 3.2-2.4 3.5l-17.3 3.5c-1.3.3-2.3 1.1-2.9 2.3-.5 1.2-.5 2.5.1 3.7l15.6 27.1c.6 1 1.9 1.4 2.9.8 1-.6 1.4-1.9.8-2.9L59.1 32.4l17-3.4c3.8-.8 6.3-4.5 5.8-8.3-.3-2-1.4-3.9-3.1-5.1S75 14 72.9 14.4L48 20c-2.7.6-4.9 2.1-6.1 4.5-1.3 2.4-1.4 5.3-.3 8l6 13.5-21 12.6c-1 .6-1.3 1.9-.7 3 .3.7 1 1.1 1.8 1.1zm68.6 6.5c-3.2 0-4.6-1-6.5-2.3-2.1-1.5-4.4-3.1-9-3.1s-6.9 1.7-9 3.1c-1.8 1.3-3.3 2.3-6.5 2.3s-4.6-1-6.5-2.3c-2.1-1.5-4.4-3.1-9-3.1s-6.9 1.7-9 3.1c-1.8 1.3-3.3 2.3-6.5 2.3s-4.6-1-6.5-2.3c-2.1-1.5-4.4-3.1-9-3.1-4.5 0-6.9 1.7-9 3.1-1.8 1.3-3.3 2.3-6.5 2.3-1.2 0-2.2 1-2.2 2.2s1 2.2 2.2 2.2c4.5 0 6.9-1.7 9-3.1 1.8-1.3 3.3-2.3 6.5-2.3s4.6 1 6.5 2.3c2.1 1.5 4.4 3.1 9 3.1 4.5 0 6.9-1.7 9-3.1C45.4 69 46.8 68 50 68s4.6 1 6.5 2.3c2.1 1.5 4.4 3.1 9 3.1 4.5 0 6.9-1.7 9-3.1C76.3 69 77.8 68 81 68s4.6 1 6.5 2.3c2.1 1.5 4.4 3.1 9 3.1 1.2 0 2.2-1 2.2-2.2s-1.2-2-2.4-2zm0 12.2c-3.2 0-4.6-1-6.5-2.3-2.1-1.5-4.4-3.1-9-3.1s-6.9 1.7-9 3.1c-1.8 1.3-3.3 2.3-6.5 2.3s-4.6-1-6.5-2.3c-2.1-1.5-4.4-3.1-9-3.1s-6.9 1.7-9 3.1c-1.8 1.3-3.3 2.3-6.5 2.3s-4.6-1-6.5-2.3c-2.1-1.5-4.4-3.1-9-3.1-4.5 0-6.9 1.7-9 3.1-1.8 1.3-3.3 2.3-6.5 2.3-1.2 0-2.2 1-2.2 2.2s1 2.2 2.2 2.2c4.5 0 6.9-1.7 9-3.1 1.8-1.3 3.3-2.3 6.5-2.3s4.6 1 6.5 2.3c2.1 1.5 4.4 3.1 9 3.1 4.5 0 6.9-1.7 9-3.1 1.8-1.3 3.3-2.3 6.5-2.3s4.6 1 6.5 2.3c2.1 1.5 4.4 3.1 9 3.1 4.5 0 6.9-1.7 9-3.1 1.8-1.3 3.3-2.3 6.5-2.3s4.6 1 6.5 2.3c2.1 1.5 4.4 3.1 9 3.1 1.2 0 2.2-1 2.2-2.2s-1-2.2-2.2-2.2z"/></svg>