<svg width="1600" height="1600" viewBox="0 0 1200 1200" xmlns="http://www.w3.org/2000/svg" focusable="false"><g><path d="M997.92 974.29 766.75 558.18l1.7031-191.5h31.547c11.91 0 22.914-6.3555 28.867-16.668 5.9531-10.312 5.9531-23.02 0-33.332-5.9531-10.316-16.957-16.668-28.867-16.668h-400c-11.91 0-22.914 6.3516-28.867 16.668-5.9531 10.312-5.9531 23.02 0 33.332 5.9531 10.312 16.957 16.668 28.867 16.668h31.547l1.707 191.5-231.17 416.13c-26.141 47.055-25.43 104.43 1.8672 150.82 27.297 46.391 77.102 74.875 130.93 74.879h530.24c53.828-.003906 103.64-28.492 130.93-74.887 27.297-46.398 28.004-103.77 1.8633-150.83zM495.8 582.87c2.7969-5.043 4.2461-10.723 4.1992-16.488l-1.7812-199.71h203.57l-1.7852 199.71c-.046875 5.7656 1.4023 11.445 4.1992 16.488l119.12 214.4v-.003906c-67.102-1.8867-133.67-12.461-198.05-31.457-69.078-20.23-140.46-31.535-212.41-33.641zm442.79 508.45c-7.4648 12.848-18.191 23.5-31.09 30.879-12.902 7.3789-27.52 11.223-42.379 11.145h-530.24c-30.203-.003906-58.152-15.992-73.469-42.023-15.32-26.035-15.723-58.227-1.0586-84.637l115.83-208.5c78.453-.79688 156.59 10.004 231.89 32.055 82.055 23.871 167.19 35.449 252.64 34.352l78.934 142.08c7.2891 12.957 11.027 27.605 10.84 42.469-.18359 14.863-4.2891 29.414-11.898 42.184zM433.33 233.33c8.8438 0 17.32-3.5117 23.57-9.7617 6.2539-6.25 9.7656-14.73 9.7656-23.57-.22266-23.52 9.1797-46.105 26.023-62.516 26.395-28.227 40.941-65.508 40.641-104.15 0-11.906-6.3516-22.91-16.664-28.867-10.316-5.9531-23.02-5.9531-33.336 0-10.312 5.957-16.664 16.961-16.664 28.867.22266 23.52-9.1797 46.105-26.027 62.52-26.391 28.227-40.941 65.508-40.641 104.15 0 8.8398 3.5117 17.32 9.7617 23.57 6.2539 6.25 14.73 9.7617 23.57 9.7617zm133.34 0c8.8398 0 17.316-3.5117 23.57-9.7617 6.25-6.25 9.7617-14.73 9.7617-23.57-.22266-23.52 9.1797-46.105 26.023-62.516 26.395-28.227 40.941-65.508 40.645-104.15 0-11.906-6.3555-22.91-16.668-28.867-10.312-5.9531-23.02-5.9531-33.332 0-10.316 5.957-16.668 16.961-16.668 28.867.22266 23.52-9.1797 46.105-26.023 62.52-26.395 28.227-40.941 65.508-40.645 104.15 0 8.8398 3.5117 17.32 9.7656 23.57 6.25 6.25 14.727 9.7617 23.57 9.7617zm133.33 0c8.8398 0 17.32-3.5117 23.57-9.7617s9.7617-14.73 9.7617-23.57c-.22266-23.52 9.1797-46.105 26.027-62.516 26.391-28.227 40.941-65.508 40.641-104.15 0-11.906-6.3516-22.91-16.668-28.867-10.312-5.9531-23.02-5.9531-33.332 0-10.312 5.957-16.668 16.961-16.668 28.867.22266 23.52-9.1797 46.105-26.023 62.52-26.395 28.227-40.941 65.508-40.641 104.15 0 8.8398 3.5117 17.32 9.7617 23.57s14.73 9.7617 23.57 9.7617z"/><path d="M600 933.33c0 36.82-29.848 66.668-66.668 66.668-36.816 0-66.664-29.848-66.664-66.668 0-36.816 29.848-66.664 66.664-66.664 36.82 0 66.668 29.848 66.668 66.664m266.67 83.37c0 27.613-22.387 50-50 50-27.617 0-50-22.387-50-50 0-27.617 22.383-50 50-50 27.613 0 50 22.383 50 50M400 1033.3c0 18.41-14.926 33.336-33.332 33.336-18.41 0-33.336-14.926-33.336-33.336 0-18.406 14.926-33.332 33.336-33.332 18.406 0 33.332 14.926 33.332 33.332"/></g></svg>