<svg xmlns="http://www.w3.org/2000/svg" viewBox="0 0 100 100"><path d="M69.6369 52.88068a3.50641 3.50641 0 1 0 4.9481 4.96954L88.28693 44.21a23.0001 23.0001 0 0 0-2.37268-34.55448 22.63681 22.63681 0 0 0-11.05372-4.48914A22.87733 22.87733 0 0 0 55.8042 11.73L42.15515 25.421a3.50594 3.50594 0 1 0 4.96723 4.949l13.62231-13.69a15.97061 15.97061 0 1 1 22.59174 22.58ZM27.97192 95a22.79115 22.79115 0 0 0 16.24134-6.73l13.64459-13.69542a3.50336 3.50336 0 1 0-4.96362-4.94537L39.26276 83.32a15.96711 15.96711 0 1 1-22.58185-22.58s8.69763-8.679 13.688-13.633a3.50106 3.50106 0 1 0-4.941-4.96142L11.73053 55.79A22.97 22.97 0 0 0 27.97192 95Z"/><path d="M62.43341 32.6181 32.61676 62.43182a3.49982 3.49982 0 0 0 4.94965 4.94934l29.81707-29.81329a3.50012 3.50012 0 0 0-4.95007-4.94977Z"/></svg>