<svg width="33" height="33" viewBox="0 0 33 33" xmlns="http://www.w3.org/2000/svg" focusable="false"><path d="M17.145834 0H1.558712C.69786 0 0 .698016 0 1.559062v15.59062c0 .413804.16447.810632.457178 1.103065L13.846516 31.6295c.87584.877012 2.066022 1.3705 3.307112 1.3705 1.24109 0 2.431272-.493488 3.308367-1.371756l11.175354-11.177861c1.816322-1.827563 1.816322-4.77384.003274-6.598117L18.24801.456639C17.955695.164258 17.55923 0 17.145834 0ZM3 3h13.498547l13.047117 13.04989c.60633.610146.60633 1.600907-.003303 2.214368L18.27198 29.538093C17.97644 29.834052 17.576244 30 17.15893 30l-.206821-.01366c-.340966-.04525-.659841-.201511-.90561-.447628L3 16.504268V3Z"/><path d="M9.00995 7C10.109024 7 11 7.89543 11 9c0 1.025672-.76824 1.871014-1.757968 1.986545L8.99005 11C7.890976 11 7 10.10457 7 9c0-1.025672.76824-1.871014 1.757968-1.986545L9.00995 7Z"/></svg>