<?xml version="1.0" encoding="utf-8"?>
<!-- Generator: Adobe Illustrator 26.0.3, SVG Export Plug-In . SVG Version: 6.00 Build 0)  -->
<svg version="1.1" id="Layer_1" xmlns="http://www.w3.org/2000/svg" xmlns:xlink="http://www.w3.org/1999/xlink" x="0px" y="0px"
	 viewBox="0 0 182 182" style="enable-background:new 0 0 182 182;" xml:space="preserve">
<style type="text/css">
	.st0{fill-rule:evenodd;clip-rule:evenodd;fill:#EEC747;}
	.st1{filter:url(#Adobe_OpacityMaskFilter);}
	.st2{fill-rule:evenodd;clip-rule:evenodd;fill:#FFFFFF;}
	.st3{mask:url(#mask-2_00000173876446070165355970000014292046971336342186_);fill-rule:evenodd;clip-rule:evenodd;fill:#141C25;}
	.st4{fill:#EEC747;}
	.st5{fill:#F8F9FB;}
</style>
<g>
	<desc>Created with Sketch.</desc>
	<g id="Welcome">
		<g id="Desktop-HD-dark" transform="translate(-47.000000, -49.000000)">
			<g id="Header-dark">
				<g id="Logo" transform="translate(47.000000, 49.000000)">
					<g id="Oval">
						<g id="Mask">
							<circle id="path-1_00000175300542213168360510000002538507622717148601_" class="st0" cx="91" cy="91" r="90.4"/>
						</g>
						<defs>
							<filter id="Adobe_OpacityMaskFilter" filterUnits="userSpaceOnUse" x="6.6" y="6.6" width="168.8" height="168.8">
								<feColorMatrix  type="matrix" values="1 0 0 0 0  0 1 0 0 0  0 0 1 0 0  0 0 0 1 0"/>
							</filter>
						</defs>
						
							<mask maskUnits="userSpaceOnUse" x="6.6" y="6.6" width="168.8" height="168.8" id="mask-2_00000173876446070165355970000014292046971336342186_">
							<g class="st1">
								<circle id="path-1_00000013905805482973268970000011269634564383717003_" class="st2" cx="91" cy="91" r="90.4"/>
							</g>
						</mask>
						<circle class="st3" cx="91" cy="91" r="84.4"/>
					</g>
					<g id="Group" transform="translate(30.300000, 0.000000)">
						<path id="L" class="st4" d="M135.9,181.4v-40.1h-4.2c0,10.2-0.4,17.8-1.3,23c-0.9,5.2-2.6,8.6-5.1,10.3
							c-2.5,1.7-6.3,2.6-11.3,2.6l0,0H94.5V4.8h11.7V0.6H94.5H71.1H59.4v4.1h11.7v172.4H59.4v4.1h11.7h62.4H135.9z"/>
						<path id="R" class="st5" d="M32.1,90.3H21.2V41.7h10.9c2.2,0,3.9,0.6,5.1,1.9s2.2,2.9,2.8,4.7c0.6,1.8,1,3.7,1.2,5.7
							c0.1,1.9,0.2,3.6,0.2,5l0,0v14.4c0,2.9-0.3,5.6-0.8,8.2c-0.5,2.6-1.5,4.7-2.9,6.3C36.4,89.5,34.5,90.3,32.1,90.3L32.1,90.3z
							 M21.2,92.7h4.9c1.6,0,2.8,0.3,3.7,1c0.9,0.6,1.6,1.8,2.2,3.4c0.6,1.6,1.2,3.8,1.9,6.7l0,0l9.5,39.8h13.9h6.4v-2.4h-7
							l-9.1-35.9c-0.6-2.6-1.5-4.7-2.7-6.4l-0.2-0.3c-1.4-1.7-2.9-3-4.5-3.8c-1.6-0.8-3-1.4-4.2-1.6c-1.2-0.2-2-0.4-2.4-0.4l0,0
							l0.5,0c3.5-0.1,6.4-0.8,8.9-2.2c2.6-1.5,4.8-3.4,6.6-5.8s3-4.9,3.9-7.6c0.8-2.7,1.3-5.2,1.3-7.4l0,0V63c0-2.3-0.4-4.8-1.2-7.4
							c-0.8-2.7-2-5.3-3.7-7.7s-3.9-4.5-6.6-6.1c-2.7-1.6-6-2.4-9.8-2.4l0,0H7.8H1.1v2.4h6.7v99.3H1.1v2.4h6.7h13.4h6.7v-2.4h-6.7
							V92.7z"/>
					</g>
				</g>
			</g>
		</g>
	</g>
</g>
</svg>
