<?xml version="1.0" encoding="UTF-8"?>
<svg width="80px" height="80px" viewBox="0 0 80 80" version="1.1" xmlns="http://www.w3.org/2000/svg" xmlns:xlink="http://www.w3.org/1999/xlink">
    <!-- Generator: Sketch 63.1 (92452) - https://sketch.com -->
    <title>gitlab-logo-circle</title>
    <desc>Created with Sketch.</desc>
    <g id="Welcome" stroke="none" stroke-width="1" fill="none" fill-rule="evenodd">
        <g id="Desktop-HD-light" transform="translate(-1798.000000, -3425.000000)" fill-rule="nonzero">
            <g id="Footer-light" transform="translate(0.000000, 3046.000000)">
                <g id="gitlab-logo-circle" transform="translate(1798.000000, 379.000000)">
                    <circle id="Oval" fill="#EEC747" cx="40" cy="40" r="40"></circle>
                    <path d="M64.28,42.7 L61.72,34.84 C61.7,34.76 61.68,34.7 61.66,34.62 L56.5,18.8 C56.22,17.96 55.44,17.4 54.54,17.4 C53.66,17.4 52.88,17.96 52.62,18.8 L47.72,33.88 L32.26,33.88 L27.36,18.8 C27.1,17.96 26.32,17.4 25.44,17.4 L25.42,17.4 C24.54,17.4 23.76,17.96 23.48,18.8 L18.34,34.64 C18.34,34.66 18.32,34.66 18.32,34.68 L15.72,42.7 C15.32,43.9 15.76,45.22 16.78,45.98 L39.3,62.36 C39.7,62.66 40.26,62.66 40.66,62.36 L40.66,62.36 L63.2,46 C64.24,45.22 64.66,43.9 64.28,42.7 Z M30.6,36.2 L36.88,55.52 L21.8,36.2 L30.6,36.2 Z M43.12,55.52 L49.14,37 L49.4,36.2 L58.2,36.2 L44.56,53.68 L43.12,55.52 Z M54.58,20.28 L59,33.86 L50.16,33.86 L54.58,20.28 Z M46.98,36.18 L42.6,49.64 L40,57.66 L33.02,36.18 L46.98,36.18 Z M25.42,20.28 L29.84,33.86 L21.02,33.86 L25.42,20.28 Z M18.14,44.1 C17.92,43.94 17.84,43.66 17.92,43.4 L19.86,37.46 L34.06,55.66 L18.14,44.1 Z M61.86,44.1 L45.94,55.66 L46,55.6 L60.14,37.48 L62.08,43.42 C62.16,43.66 62.08,43.94 61.86,44.1 L61.86,44.1 Z" id="Shape" fill="#1A2839"></path>
                </g>
            </g>
        </g>
    </g>
</svg>