<?xml version="1.0" encoding="UTF-8"?>
<svg width="80px" height="80px" viewBox="0 0 80 80" version="1.1" xmlns="http://www.w3.org/2000/svg" xmlns:xlink="http://www.w3.org/1999/xlink">
    <!-- Generator: Sketch 63.1 (92452) - https://sketch.com -->
    <title>iconfinder_codepen_3069645</title>
    <desc>Created with Sketch.</desc>
    <g id="Welcome" stroke="none" stroke-width="1" fill="none" fill-rule="evenodd">
        <g id="Desktop-HD-light" transform="translate(-1685.000000, -3425.000000)" fill-rule="nonzero">
            <g id="Footer-light" transform="translate(0.000000, 3046.000000)">
                <g id="iconfinder_codepen_3069645" transform="translate(1685.000000, 379.000000)">
                    <circle id="ellipse" fill="#EEC747" cx="40" cy="40" r="40"></circle>
                    <path d="M64.96875,32.015625 C64.953125,31.953125 64.953125,31.890625 64.9375,31.84375 C64.921875,31.8125 64.921875,31.78125 64.90625,31.734375 C64.890625,31.6875 64.875,31.625 64.84375,31.578125 C64.828125,31.546875 64.8125,31.515625 64.796875,31.46875 C64.78125,31.421875 64.75,31.375 64.71875,31.328125 C64.703125,31.296875 64.6875,31.265625 64.65625,31.234375 C64.625,31.1875 64.59375,31.140625 64.5625,31.109375 C64.546875,31.078125 64.515625,31.046875 64.484375,31.015625 C64.453125,30.96875 64.421875,30.9375 64.375,30.90625 C64.34375,30.875 64.3125,30.84375 64.296875,30.828125 C64.265625,30.796875 64.21875,30.765625 64.171875,30.71875 C64.140625,30.6875 64.109375,30.671875 64.078125,30.640625 C64.0625,30.625 64.0625,30.625 64.046875,30.609375 L41.1875,15.359375 C40.46875,14.875 39.53125,14.875 38.796875,15.359375 L15.9375,30.59375 C15.921875,30.609375 15.921875,30.609375 15.90625,30.625 C15.875,30.640625 15.84375,30.671875 15.8125,30.703125 C15.765625,30.734375 15.734375,30.765625 15.6875,30.8125 C15.65625,30.84375 15.625,30.875 15.609375,30.890625 C15.578125,30.921875 15.53125,30.96875 15.5,31 C15.46875,31.03125 15.453125,31.0625 15.421875,31.09375 C15.390625,31.140625 15.359375,31.1875 15.328125,31.21875 C15.3125,31.25 15.28125,31.28125 15.265625,31.3125 C15.234375,31.359375 15.21875,31.40625 15.1875,31.453125 C15.171875,31.484375 15.15625,31.515625 15.140625,31.5625 C15.125,31.609375 15.109375,31.671875 15.078125,31.71875 C15.0625,31.75 15.0625,31.78125 15.046875,31.828125 C15.03125,31.890625 15.015625,31.953125 15.015625,32 C15.015625,32.03125 15,32.0625 15,32.09375 C14.984375,32.1875 14.984375,32.28125 14.984375,32.375 L14.984375,47.609375 C14.984375,47.703125 14.984375,47.796875 15,47.890625 C15,47.921875 15.015625,47.953125 15.015625,47.984375 C15.03125,48.046875 15.03125,48.109375 15.046875,48.171875 C15.0625,48.203125 15.0625,48.234375 15.078125,48.28125 C15.09375,48.328125 15.109375,48.390625 15.140625,48.4375 C15.15625,48.46875 15.171875,48.5 15.1875,48.546875 C15.203125,48.59375 15.234375,48.640625 15.265625,48.6875 C15.28125,48.71875 15.3125,48.75 15.328125,48.78125 C15.359375,48.828125 15.390625,48.875 15.421875,48.90625 C15.4375,48.9375 15.46875,48.96875 15.5,49 C15.53125,49.046875 15.5625,49.078125 15.609375,49.109375 C15.640625,49.140625 15.671875,49.171875 15.6875,49.1875 C15.71875,49.21875 15.765625,49.25 15.8125,49.296875 C15.84375,49.328125 15.875,49.34375 15.90625,49.375 C15.921875,49.390625 15.921875,49.390625 15.9375,49.40625 L38.796875,64.640625 C39.15625,64.875 39.578125,65 39.984375,65 C40.40625,65 40.8125,64.875 41.171875,64.640625 L64.03125,49.40625 C64.046875,49.390625 64.0625,49.390625 64.0625,49.375 C64.09375,49.34375 64.125,49.328125 64.15625,49.296875 C64.203125,49.265625 64.234375,49.234375 64.28125,49.1875 C64.3125,49.15625 64.34375,49.125 64.359375,49.109375 C64.390625,49.078125 64.4375,49.03125 64.46875,49 C64.5,48.96875 64.515625,48.9375 64.546875,48.90625 C64.578125,48.859375 64.609375,48.8125 64.640625,48.78125 C64.65625,48.75 64.6875,48.71875 64.703125,48.6875 C64.734375,48.640625 64.75,48.59375 64.78125,48.546875 C64.796875,48.515625 64.8125,48.484375 64.828125,48.4375 C64.84375,48.390625 64.859375,48.328125 64.890625,48.28125 C64.90625,48.25 64.921875,48.21875 64.921875,48.171875 C64.9375,48.109375 64.953125,48.046875 64.953125,47.984375 C64.953125,47.953125 64.96875,47.921875 64.96875,47.890625 C64.984375,47.796875 64.984375,47.703125 64.984375,47.609375 L64.984375,32.375 C64.984375,32.28125 64.984375,32.1875 64.96875,32.09375 C64.984375,32.0625 64.96875,32.046875 64.96875,32.015625 Z M40,45.078125 L32.40625,40 L40,34.921875 L47.59375,40 L40,45.078125 Z M37.859375,31.1875 L28.546875,37.421875 L21.03125,32.390625 L37.859375,21.1718568 C37.859375,21.15625 37.859375,31.1875 37.859375,31.1875 Z M24.671875,40 L19.296875,43.59375 L19.296875,36.40625 L24.671875,40 Z M28.53125,42.578125 L37.84375,48.8125 L37.84375,58.828125 L21.015625,47.609375 L28.53125,42.578125 Z M42.140625,48.8125 L51.453125,42.578125 L58.96875,47.609375 L42.140625,58.828125 L42.140625,48.8125 L42.140625,48.8125 Z M55.328125,40 L60.703125,36.40625 L60.703125,43.59375 L55.328125,40 Z M51.46875,37.421875 L42.15625,31.1875 L42.15625,21.171875 L58.984375,32.390625 L51.46875,37.421875 Z" id="logo" fill="#1A2839"></path>
                </g>
            </g>
        </g>
    </g>
</svg>