<svg width="182" height="182" viewBox="0 0 182 182" xmlns="http://www.w3.org/2000/svg" xmlns:xlink="http://www.w3.org/1999/xlink"><title>Website Logo</title><defs><circle id="a" cx="91" cy="91" r="91"/></defs><g fill="none" fill-rule="evenodd"><g><mask id="b" fill="#fff"><use xlink:href="#a"/></mask><use fill="none" xlink:href="#a" id="logo-border"/><circle id="logo-circle-fill" fill="none" mask="url(#b)" cx="91" cy="91" r="85"/></g><g fill-rule="nonzero"><path d="M166.719 182v-40.357654h-4.190476c0 10.241297-.436508 17.965665-1.309524 23.173105-.873016 5.207439-2.575397 8.679065-5.107143 10.414878-2.531746 1.735813-6.329365 2.60372-11.392857 2.60372h-19.642857V4.165951h11.785714V0H89.719v4.165951h11.785714V177.83405H89.719V182h77z" fill="none" id="logo-L"/><path d="M62.2 90.3H51.25V41.4H62.2c2.2 0 3.925.65 5.175 1.95 1.25 1.3 2.2 2.875 2.85 4.725.65 1.85 1.05 3.75 1.2 5.7.15 1.95.225 3.625.225 5.025v14.55c0 2.9-.275 5.65-.825 8.25-.55 2.6-1.525 4.7-2.925 6.3-1.4 1.6-3.3 2.4-5.7 2.4zm-10.95 2.4h4.95c1.6 0 2.85.325 3.75.975.9.65 1.65 1.775 2.25 3.375.6 1.6 1.25 3.85 1.95 6.75l9.6 40.05h20.4v-2.4h-7.057L77.95 105.3c-.564706-2.635294-1.483737-4.783391-2.757093-6.44429L74.95 98.55c-1.4-1.7-2.9-2.975-4.5-3.825-1.6-.85-3-1.4-4.2-1.65-1.2-.25-2-.375-2.4-.375l.525-.005102c3.47619-.068027 6.47619-.816327 9-2.244898 2.65-1.5 4.85-3.45 6.6-5.85 1.75-2.4 3.05-4.95 3.9-7.65.85-2.7 1.275-5.2 1.275-7.5v-6.6c0-2.3-.4-4.8-1.2-7.5-.8-2.7-2.05-5.3-3.75-7.8-1.7-2.5-3.9-4.55-6.6-6.15-2.7-1.6-6-2.4-9.9-2.4H31v2.4h6.75v100.05H31v2.4h27v-2.4h-6.75V92.7z" fill="none" id="logo-R"/></g></g></svg>