<?xml version="1.0" encoding="UTF-8"?>
<svg width="33px" height="33px" viewBox="0 0 33 33" version="1.1" xmlns="http://www.w3.org/2000/svg" xmlns:xlink="http://www.w3.org/1999/xlink">
    <title>Tag Icon</title>
    <desc>Created with Sketch.</desc>
    <path d="M17.1458344,0 L1.55871222,0 C0.697859235,0 0,0.698015835 0,1.55906199 L0,17.149682 C0,17.5634856 0.164470335,17.9603142 0.45717834,18.2527472 L13.8465164,31.629499 C14.7223562,32.5065118 15.9125381,33 17.153628,33 C18.394718,33 19.5849,32.5065118 20.4619947,31.6282437 L31.6373486,20.4503826 C33.4536711,18.6228204 33.4536711,15.6765435 31.6406226,13.8522659 L18.2480104,0.456638685 C17.9556953,0.164257845 17.5592307,0 17.1458344,0 Z M3,3 L16.4985468,3 L29.5456638,16.0498894 C30.1519947,16.660036 30.1519947,17.6507975 29.5423611,18.2642577 L18.2719794,29.5380928 C17.97644,29.834052 17.5762439,30 17.1589299,30 L16.9521077,29.9863402 C16.6111418,29.9410897 16.2922665,29.7848286 16.0464987,29.5387118 L3,16.5042677 L3,3 Z" id="tagDot"></path>
    <path d="M9.00995024,7 C10.1090244,7 11,7.8954305 11,9 C11,10.0256717 10.2317608,10.8710143 9.2420321,10.9865445 L8.99004976,11 C7.89097562,11 7,10.1045695 7,9 C7,7.97432832 7.76823918,7.12898568 8.7579679,7.01345546 L9.00995024,7 Z" id="tagOuter"></path>
</svg>