<?xml version="1.0" encoding="utf-8"?>
<!-- Generator: Adobe Illustrator 23.0.1, SVG Export Plug-In . SVG Version: 6.00 Build 0)  -->
<svg version="1.2" baseProfile="tiny" id="Layer_1" xmlns="http://www.w3.org/2000/svg" xmlns:xlink="http://www.w3.org/1999/xlink"
	 x="0px" y="0px" viewBox="0 0 400 400" xml:space="preserve">
<g id="Dark_Blue">
	<circle cx="200" cy="200" r="200"/>
	<path fill="#FFFFFF" d="M321.4,213.5l-12.8-39.3c-0.1-0.4-0.2-0.7-0.3-1.1L282.5,94c-1.4-4.2-5.3-7-9.8-7c-4.4,0-8.3,2.8-9.6,7
		l-24.5,75.4h-77.3L136.8,94c-1.3-4.2-5.2-7-9.6-7h-0.1c-4.4,0-8.3,2.8-9.7,7l-25.7,79.2c0,0.1-0.1,0.1-0.1,0.2l-13,40.1
		c-2,6,0.2,12.6,5.3,16.4l112.6,81.9c2,1.5,4.8,1.5,6.8,0l0,0l112.7-81.8C321.2,226.1,323.3,219.5,321.4,213.5z M153,181l31.4,96.6
		L109,181H153z M215.6,277.6l30.1-92.6l1.3-4h44l-68.2,87.4L215.6,277.6z M272.9,101.4l22.1,67.9h-44.2L272.9,101.4z M234.9,180.9
		L213,248.2L200,288.3l-34.9-107.4H234.9z M127.1,101.4l22.1,67.9h-44.1L127.1,101.4z M90.7,220.5c-1.1-0.8-1.5-2.2-1.1-3.5
		l9.7-29.7l71,91L90.7,220.5z M309.3,220.5l-79.6,57.8l0.3-0.3l70.7-90.6l9.7,29.7C310.8,218.3,310.4,219.7,309.3,220.5L309.3,220.5
		z"/>
</g>
</svg>
