<svg xmlns="http://www.w3.org/2000/svg" xmlns:xlink="http://www.w3.org/1999/xlink" viewBox="0 0 182 182" focusable="false"><defs><circle id="a" cx="91" cy="91" r="91"/><title>Website Logo</title></defs><g fill="none" fill-rule="evenodd"><g><mask id="b" fill="#fff"><use xlink:href="#a" /></mask><use fill="#EEC747" xlink:href="#a" id="logo-border" /><circle id="logo-circle-fill" fill="#141C25" mask="url(#b)" cx="91" cy="91" r="85"/></g><g fill-rule="nonzero"><path d="M166.719 182v-40.358h-4.19c0 10.242-.437 17.966-1.31 23.173-.873 5.208-2.575 8.68-5.107 10.415-2.532 1.736-6.33 2.604-11.393 2.604h-19.643V4.166h11.786V0H89.719v4.166h11.786v173.668H89.719V182h77Z" fill="#EEC747" id="logo-L"/><path d="M62.2 90.3H51.25V41.4H62.2c2.2 0 3.925.65 5.175 1.95 1.25 1.3 2.2 2.875 2.85 4.725.65 1.85 1.05 3.75 1.2 5.7.15 1.95.225 3.625.225 5.025v14.55c0 2.9-.275 5.65-.825 8.25-.55 2.6-1.525 4.7-2.925 6.3-1.4 1.6-3.3 2.4-5.7 2.4Zm-10.95 2.4h4.95c1.6 0 2.85.325 3.75.975.9.65 1.65 1.775 2.25 3.375.6 1.6 1.25 3.85 1.95 6.75l9.6 40.05h20.4v-2.4h-7.057L77.95 105.3c-.565-2.635-1.484-4.783-2.757-6.444l-.243-.306c-1.4-1.7-2.9-2.975-4.5-3.825-1.6-.85-3-1.4-4.2-1.65-1.2-.25-2-.375-2.4-.375l.525-.005c3.476-.068 6.476-.816 9-2.245 2.65-1.5 4.85-3.45 6.6-5.85 1.75-2.4 3.05-4.95 3.9-7.65.85-2.7 1.275-5.2 1.275-7.5v-6.6c0-2.3-.4-4.8-1.2-7.5-.8-2.7-2.05-5.3-3.75-7.8-1.7-2.5-3.9-4.55-6.6-6.15-2.7-1.6-6-2.4-9.9-2.4H31v2.4h6.75v100.05H31v2.4h27v-2.4h-6.75V92.7Z" fill="#F8F9FB" id="logo-R"/></g></g></svg>