<?xml version="1.0" encoding="UTF-8"?>
<svg width="182px" height="182px" viewBox="0 0 182 182" version="1.1" xmlns="http://www.w3.org/2000/svg" xmlns:xlink="http://www.w3.org/1999/xlink">
    <!-- Generator: Sketch 63.1 (92452) - https://sketch.com -->
    <title>Logo</title>
    <desc>Created with Sketch.</desc>
    <defs>
        <circle id="path-1" cx="91" cy="91" r="91"></circle>
    </defs>
    <g id="Welcome" stroke="none" stroke-width="1" fill="none" fill-rule="evenodd">
        <g id="Desktop-HD-dark" transform="translate(-47.000000, -49.000000)">
            <g id="Header-dark">
                <g id="Logo" transform="translate(47.000000, 49.000000)">
                    <g id="Oval">
                        <mask id="mask-2" fill="white">
                            <use xlink:href="#path-1"></use>
                        </mask>
                        <use id="Mask" fill="#EEC747" xlink:href="#path-1"></use>
                        <circle fill="#141C25" mask="url(#mask-2)" cx="91" cy="91" r="85"></circle>
                    </g>
                    <g id="Group" transform="translate(30.300000, 0.000000)" fill-rule="nonzero">
                        <path d="M136.419,182 L136.419,141.642346 L132.228524,141.642346 C132.228524,151.883643 131.792016,159.608011 130.919,164.815451 C130.045984,170.02289 128.343603,173.494516 125.811857,175.230329 C123.280111,176.966142 119.482492,177.834049 114.419,177.834049 L114.419,177.834049 L94.7761429,177.834049 L94.7761429,4.16595136 L106.561857,4.16595136 L106.561857,0 L94.7761429,0 L71.2047143,0 L59.419,0 L59.419,4.16595136 L71.2047143,4.16595136 L71.2047143,177.834049 L59.419,177.834049 L59.419,182 L71.2047143,182 L134.061857,182 L136.419,182 Z" id="L" fill="#EEC747"></path>
                        <path d="M31.9,90.3 L20.95,90.3 L20.95,41.4 L31.9,41.4 C34.1,41.4 35.825,42.05 37.075,43.35 C38.325,44.65 39.275,46.225 39.925,48.075 C40.575,49.925 40.975,51.825 41.125,53.775 C41.275,55.725 41.35,57.4 41.35,58.8 L41.35,58.8 L41.35,73.35 C41.35,76.25 41.075,79 40.525,81.6 C39.975,84.2 39,86.3 37.6,87.9 C36.2,89.5 34.3,90.3 31.9,90.3 L31.9,90.3 Z M20.95,92.7 L25.9,92.7 C27.5,92.7 28.75,93.025 29.65,93.675 C30.55,94.325 31.3,95.45 31.9,97.05 C32.5,98.65 33.15,100.9 33.85,103.8 L33.85,103.8 L43.45,143.85 L57.4,143.85 L63.85,143.85 L63.85,141.45 L56.793,141.45 L47.65,105.3 C47.0852941,102.664706 46.166263,100.516609 44.8929066,98.8557093 L44.65,98.55 C43.25,96.85 41.75,95.575 40.15,94.725 C38.55,93.875 37.15,93.325 35.95,93.075 C34.75,92.825 33.95,92.7 33.55,92.7 L33.55,92.7 L34.075,92.694898 C37.5511905,92.6268707 40.5511905,91.8785714 43.075,90.45 C45.725,88.95 47.925,87 49.675,84.6 C51.425,82.2 52.725,79.65 53.575,76.95 C54.425,74.25 54.85,71.75 54.85,69.45 L54.85,69.45 L54.85,62.85 C54.85,60.55 54.45,58.05 53.65,55.35 C52.85,52.65 51.6,50.05 49.9,47.55 C48.2,45.05 46,43 43.3,41.4 C40.6,39.8 37.3,39 33.4,39 L33.4,39 L7.45,39 L0.7,39 L0.7,41.4 L7.45,41.4 L7.45,141.45 L0.7,141.45 L0.7,143.85 L7.45,143.85 L20.95,143.85 L27.7,143.85 L27.7,141.45 L20.95,141.45 L20.95,92.7 Z" id="R" fill="#F8F9FB"></path>
                    </g>
                </g>
            </g>
        </g>
    </g>
</svg>